<?xml version="1.0" encoding="UTF-8"?>
<svg id="Layer_2" data-name="Layer 2" xmlns="http://www.w3.org/2000/svg" viewBox="0 0 278.66 279.05">
  <defs>
    <style>
      .cls-1 {
        fill: #231f20;
      }
    </style>
  </defs>
  <g id="Layer_1-2" data-name="Layer 1">
    <g>
      <path class="cls-1" d="M94.14,88.99c-.28,1.66,1.35,1.97,2.32,2.93,9.3,9.1,18.81,18.73,27.05,28.78,6.54,7.97,12.28,18.75,22.68,22.03-1.11-16.74-2.82-33.45-4.19-50.17-.7-8.5-.6-18.1-1.72-26.41-.35-2.57-3.35-6.03-3.35-8.01,0-2.79,5.83-10.36,6.57-13.6l1.01-.88c-.02.69.07,1.36.29,2.02,3.25,9.8,7.78,19.41,11.05,29.25,1.03,3.08,3.21,8.03,2.3,11.15-.11.38-.19,1.15-.84.82-.91-.46-4.46-7.95-5.6-9.52-.38-.52-.44-1.17-1.33-.97l5.52,68.15.33.52c1.71,1.27,11.16-4.45,12.22-6.31.46-.8.44-1.24.43-2.12-.1-7.33-1.12-16.05-1.72-23.5-1.74-21.85-4.29-43.67-6.29-65.49-.74-8.06-.79-16.34-1.69-24.34-.37-3.35-2.22-5.79-3.35-8.85l7.13-14.45c3.43,10.75,8.13,21.17,11.53,31.92,1.16,3.65,3.15,7.66,1.48,11.32-.62.48-5.01-8.59-5.52-9.37-.24-.38-1.05-1.6-1.61-1.33,1.03,20.1,3.96,40.03,5.87,60.03,1.66,17.28,4.48,46.44-10.29,58.96-2.37,2.01-5.23,3.25-7.59,5.24l5.29,65.3,21.21-9.64c-2.86-10.02-4.53-20.44,1.28-29.79,7.83-12.59,15.92-6.07,18.86,5.42,2.38,9.31.86,19.07-5.46,26.46-.94,1.1-4.3,3.65-4.64,4.19-.57.88,2,4.01,2.79,4.79,4.76,4.71,11.54,5.04,17.46,2.43,2.08-.92,8.44-5.19,8.56-7.42.05-.86-.44-1.7-.46-2.53-.29-12.58-1.2-25.21-2.11-37.77-2.77-38.5-6.42-76.98-9.65-115.45-.56-6.72-.56-13.92-1.26-20.57-.34-3.2-3.06-5.63-3.36-8.77l7.14-13.9,13.44,35.68c.74,2.18,1.18,4.16.54,6.44-.16.57.12,1.1-.75.91l-6.1-10.49-.83.21,10.93,136.41c1.22,16.33-2.6,46.18-21.91,50.74-12.57,2.97-16.86-7.43-21.16-16.92-3.91,1.62-8.02,2.79-11.93,4.4-1.78.73-10.56,4.52-11.34,5.45-1.18,1.42-.02,4.96.01,6.7.29,13.22-.67,26.34-7.36,38.01l-2.31-38.62c-.34-.42-4.14,2.74-4.62,3.14-2.73,2.23-5.82,5.16-8.18,7.77-9.45,10.42-19.7,33.66-37.7,24.7-11.68-5.81-11.27-22.67-8.26-33.5l-9.76,2.93c-3.22,5.24-7.41,15.71-.15,19.28.9-.21,2.23-4.81,3.18-5.65.46-.41,1.01-.41.83.4-.88,4-5.83,14.61-10.47,8.42-4.6-6.13,1.65-15.84,4.61-21.61-11.03,2.17-22.93,4.44-33.8.42-19.37-7.16-21.56-30-16.16-47.44-2.76.98-4.83,3.2-7.86,3.68-11.65,1.81-19.71-8.18-20.25-19-.54-10.87,5.28-25.89,13.64-32.94,1.37-.4.3,2.88.11,3.47-2.53,7.55-8.14,11.82-9.09,21.56-.89,9.13,4.77,16.52,14.4,15.24,9.93-1.33,22.33-18.56,30.04-25.37,11.78-10.39,23.2-12.35,37.46-17.12,3.35-1.12,15.62-5,17.14-7.62.78-1.35.3-2.38-.05-3.78-2.41-9.54-22.32-31.85-29.77-39.49-.47-.48-1.22-1.47-1.89-1.47-7.22,3.83-13.81,8.73-20.15,13.87-9.64,7.82-26.1,25.08-39.07,24.35-3.45-.19-5.89-1.63-9-2.54-2.29,6.39-8.99,16.76-1.05,21.75l3.98-6.22c-.07,4.54-5.55,16.15-10.49,9.03-4.73-6.81,4.11-19.33,7.15-25.6-17.26-14-1.39-37.88,8.82-51.21.79-1.03,4.79-5.3,4.97-5.97.14-.53-.82-3.1-.81-4.54.08-7.35,6.33-15.49,9.27-22.03.84-.06.34,1.26.21,1.68-1.79,5.93-6,9.89-5.25,17,.22,2.12,2.77,6.95,4.81,4.39l2.74-5.02c.04,4.5-5.18,15.63-10.28,9.24-6.36,9.79-17.43,23.5-18.25,35.47-.59,8.63,7.4,13.48,15.31,12.79,11.01-.96,26.11-16.88,34.86-23.91,4.61-3.71,9.46-7.43,14.47-10.51l-.41-1.05-29.73-29.46c-.28-7.14,1.18-15.06,5.2-21.08,5.09-7.63,24.52-14.28,33.36-17.44C94.82,11.34,124.17,1.31,141.77.82c14.92-.42,5.23,16.88,1.56,23.81-1.85,3.5-4.11,7.22-6.19,10.6-2.95,4.78-5.98,10.07-10.04,13.89-.1-1.21.61-2.85,1.04-4,3.23-8.62,11.14-17.57,13.65-25.39,2.66-8.26-4.99-6.43-10.44-5.82-22.44,2.53-61.74,16.36-82.27,26.45-1.43.7-4.99,2.15-4.89,3.89.07,1.25,5.07,6.41,6.3,7.6,8.43,8.17,19.01,15.92,28.14,23.49.78.65,3.32,3.46,3.98,3.42,5.17-2.36,10.77-3.67,16.38-4.45,1.21-.17,2.7.47,3.55-.63-2.65-6.68-3.78-14.25-4.6-21.42-.23-1.97.41-3.71-.66-5.63-.39-.7-1.35-1-1.45-1.94-.16-1.53,4.08-6.78,4.84-8.58l9.85,16.17c.23.84-.44.7-1.01.59s-4.4-2.32-4.44-1.44c1.89,8.95,3.01,19.59,10.08,26.03,1.76,1.61,6.61,4.46,7.34,6.53l-1.04,12.57-8.4-4.4c-2-.82-8.47-3.15-10.28-3.15h-8.61ZM147.43,157.44c-18.58-3.22-23.49-25.28-35.66-36.96.31,2.79,1.22,5.46,1.62,8.25.91,6.51,2.32,14.43-2.65,19.48-10.43,10.59-35.35,13.97-48.64,21.04-9.39,5-16,15.79-23.56,23.04-9.03,24.85,4.08,44.66,31.04,42.79,14.63-1.01,45.85-12.32,56.84-22.08.96-.85,2.46-1.76,2.07-3.2-1.86-5.51-3.64-11.09-5.17-16.7-1.56-5.7-2.67-12.78-4.52-18.14-.54-1.57-1.53-2.85-2.26-4.31l4.47-10.43.83-.27c2.29,4.33,5.61,8.04,8.16,12.21.25.41,3.79,6.24,2.56,5.84l-5.25-2.93c-.19,7.15,4.33,13.56,5.75,20.48,3.05,14.86-2.8,25.37-14.68,33.76-6.05,4.27-12.64,7-19.51,9.66-2.27,8.72-5.77,23.31,5.86,26.46,9.4,2.55,13.48-1.84,19.43-8.09,9.44-9.9,17.36-21.66,28.76-29.69l-5.49-70.21ZM189.03,209.04c.88.62,10.15-5.26,10.47-6.93.64-3.32-4.12-13.89-8.22-14.03-2.15-.07-5.43,3.92-5.64,6.06-.42,4.26,2.74,10.57,3.38,14.9Z"/>
      <path class="cls-1" d="M256.59,86.47c-.49.51-5.22-8.09-5.71-8.78-.45-.64-.95-1.91-1.84-1.72l10.51,112.27c.07,9.58-.83,19.43-4.43,28.35-.73,1.82-1.7,4.11-3.14,5.46.57-2.5.53-5.2.43-7.78-1.4-37.69-7.12-77.73-10.93-115.43-1.07-10.6-1.17-23.33-2.96-33.56-.38-2.17-3.39-5.67-3.37-7.59l7.16-14.05,14.29,36.72c.94,2.25.59,3.87-.02,6.1Z"/>
      <path class="cls-1" d="M188.59,7.97c0,.55-.01,1.16.2,1.68,3.73,9.09,7.48,18.64,10.72,27.91,1.28,3.66,3.58,8.2,2.82,12.08-.08.43-.25,1.49-.93,1.15-.77-.38-4.53-8.05-5.6-9.52-.38-.52-.44-1.17-1.33-.97.78,9.01,1.26,18.07,2.1,27.07,1.34,14.35,3.93,29.34,4.61,43.66.63,13.36-.35,27.59-7.34,39.24-.92-31.8-4.84-63.43-7.76-95.08-.74-8.05-.88-16.31-1.69-24.34-.32-3.17-3.38-6.85-3.38-8.82,0-.84,5.74-12.14,6.64-13.52.26-.41-.05-.75.94-.54Z"/>
      <path class="cls-1" d="M63.92,61.28l22.24-13.64c-.4-.61-.8-.58-1.44-.65-6.39-.68-12.87-.73-19.12.86,2.07-2.58,4.42-10.77,7.79-11.31,3.97-.63,16.55-.52,20.11.83,1.44.54,1.66,1.04,1.4,2.61-.59,3.45-8.34,13.83-11.29,16.02-4.88,3.63-13.88,3.33-19.69,5.28Z"/>
      <polygon class="cls-1" points="95.77 141 94.58 140.83 82.78 132.79 83.04 131.42 89.76 120.06 102.51 128.72 95.77 141"/>
      <polygon class="cls-1" points="204.96 172.53 191.55 164.1 198.91 151.55 211.63 160.2 204.96 172.53"/>
      <path class="cls-1" d="M69.8,120.06l12.98,8.66c.23.79-6.08,10.67-6.94,12.3l-13.17-8.58,7.14-12.38Z"/>
      <polygon class="cls-1" points="184.39 172.53 171.04 163.51 178.33 151.54 191.08 160.19 184.39 172.53"/>
      <path class="cls-1" d="M54.26,90.67l-3.99-3.35c-9.4,13.91-22.73,22.31-37.15,30.22.24-1.09,1.87-2.22,2.74-2.93,7.98-6.6,16.88-12.5,24.55-19.53,1.32-1.21,7.2-6.73,7.76-7.77.19-.36.37-.84.16-1.21-4.94-2.34-6.41-5.93-3.24-10.68,4.52-6.78,9.79-4.48,8.71,3.67-.16,1.22-1.58,3.95-1.5,4.66.07.64,2.3,1.94,2.62,3.12.3,1.08-.77,2.62-.66,3.79ZM46,76.53c-2.55,2.21,3.12,5.3,4.7,6.57,2.94-3.43-.56-10.17-4.7-6.57Z"/>
      <path class="cls-1" d="M124.37,75.98c1.44-12.72-2.26-26.8-10.7-36.53-.94-1.09-5.71-5.09-5.88-5.45-.42-.86.3-7.73.64-7.98,13.3,10.03,20.69,28.47,17.93,45.01-.27,1.6-.47,4.18-1.98,4.94Z"/>
      <path class="cls-1" d="M43.34,162.45c-2.13-.35-1.55-3.71-4.32-2.87s-3.47,13.42-4.26,16.32c-.23.86-.59,2.15-1.48,2.5-.72-3.27-3.04-9.73-5.27-12.16-1.27-1.38-1.15.8-1.66.81-1.38-2.16-5.63-2.78-5.68-5.65-.05-2.72.65-6.02,3.94-4.36,5.35,2.7,6.94,9.29,9.29,14.21.41-2.8,2.61-18.64,6.96-17.85,4.19.76,4.41,6.02,2.48,9.04Z"/>
      <path class="cls-1" d="M277.56,129.27l-1.18-.03c-.73-1.73-1.13-3.72-3.4-2.67-2.53,1.18-3.21,12.7-3.98,15.75-.19.76-.75,2.52-1.48,2.92-.61-4.49-3.32-8.12-5.07-12.15-1.68,1.21-6.24-1.92-7.13-3.14-.74-1.02-.02-6.01.72-6.58,1.02-.79,3.87,1.27,4.73,1.97,3.66,3,5.53,7.93,6.76,12.35,1.12.11.67.01.83-.63.9-3.77.91-7.8,2.33-11.54,3.69-9.77,10.69-3.36,6.89,3.75Z"/>
      <path class="cls-1" d="M190.7,256.91c-2.5-6.8-4.74-1.66-5.69,2.5-.76,3.32-.81,7.2-1.64,10.53-.07.29-.68,3.29-1.48,2.51-.18-.18-1.22-4.04-1.61-4.9-1.1-2.45-2.46-4.78-3.84-7.07l-.8-.14-.26.8c-.45.08-5.35-3.09-5.69-3.56-1.02-1.41.12-5.22.85-6.79,7.27,1.27,9.25,9.23,11.98,14.94.12-2.81,2.82-18.79,6.96-17.86,2.59,1.47,4.31,2.84,3.53,6.11-.14.59-1.39,3.61-2.3,2.93Z"/>
      <path class="cls-1" d="M139.47,103.68c-.64,4.48-3.52,4.28-6.71,5.67-3.52,1.55-7.01,3.21-10.5,4.82.86-2.53,1.55-5.02,4.62-5.46.65-.89-3.09-2.34-3.56-3.36-1.44-3.13,5.51-10.78,8.91-9.34,2.71,1.15,2.03,4.18.32,5.97-1.46-3.01-4.29-2.69-6.04-.12-.44,1.72,4.28,3.42,5.6,3.51,2.65.18,4.92-.92,7.36-1.71Z"/>
      <path class="cls-1" d="M233.1,162.87c1.3-6.24,8.47-14.97,4.38-21.39-3.51-5.51-4.41,1.6-6.48,3.55-.5.47-.5.05-.43-.43.78-4.86,7.05-16.2,11.29-7.5,2.9,5.94-2.37,15.2-5.33,20.59-.95,1.72-2,3.82-3.43,5.17Z"/>
      <path class="cls-1" d="M170.27,203.45c3.39,3.34,3.72-3.44,5.73-4.89.65,3.08-3.66,10.73-6.6,11.27-2.51.46-4.69-3.19-5.05-5.28-.69-4.09,1.22-8.76,2.9-12.43s4.24-8.26,6.65-11.6c-1.28,6.11-9.4,17.25-3.63,22.94Z"/>
      <path class="cls-1" d="M53.01,132.65l.84.21c-.84,3.41-3.07,9.82-6.81,10.85-2.89.8-5.24-4.16-5.38-6.67-.35-6.24,6.11-16.81,9.45-22.02-.09,4.09-3.44,7.85-4.54,11.84-.86,3.12-1.26,6.85.62,9.71,3.11,4.76,4.66-1.2,5.81-3.92Z"/>
      <path class="cls-1" d="M237.28,91.09c-.07,3.38-2.07,8.08-4.83,10.07-1.96,1.42-2.74,1.73-4.57-.05-6.86-6.65,3.47-21.55,7.09-28.08.05,4.11-3.4,7.92-4.54,11.84-1.17,4.04-1.54,10.38,3.22,12.03l3.62-5.82Z"/>
      <path class="cls-1" d="M146.62,267.82l.84.21c-.52,3.27-3.33,9.99-6.72,10.95-1.92.54-4.29-2.38-4.84-4.02-1.39-4.18.61-9.01,2.24-12.88,1.73-4.12,4.28-8.83,7-12.31l-4.52,11.43c-1.07,3.47-1.99,7.22.18,10.54,3.11,4.76,4.66-1.2,5.81-3.92Z"/>
      <path class="cls-1" d="M274.23,172.11c.21,5.06-6.99,17-11.13,7.98-2.09-4.56.33-9.84,2.24-14.14,1.79-4.04,4.22-8.15,6.58-11.89-.06,3.5-2.55,6.55-3.77,9.66-1.88,4.79-3.52,11.67,2.1,14.6l3.98-6.21Z"/>
      <path class="cls-1" d="M259.96,111.24c1.75-5.96,9.36-17.04,3.53-22.63-2.88-2.77-4.07,3.02-5.22,5-.78.08-.4-1.36-.31-1.78.8-3.8,5.02-12.57,9.57-8.09s.89,12.36-1.33,17.17c-1.04,2.25-3.32,6.89-4.63,8.81-.4.58-.93,1.27-1.61,1.54Z"/>
      <path class="cls-1" d="M243.48,209.79c.62-.65,1.57-3.55,2.28-4.65.14-.21.87-1.42,1.19-.91-.49,4.18-5.69,15.65-10.5,9.23-3.42-4.57-.86-10.54,1.18-15.18,1.73-3.94,4.27-8.44,6.79-11.89-1.56,6.84-6.46,11.5-5.42,19.06.23,1.67,2.78,6.1,4.47,4.34Z"/>
      <path class="cls-1" d="M227.12,244.63l2.62-5.57c.71-.62.43.95.38,1.22-.65,3.65-5.49,13.93-10.04,8.44-1.6-1.93-1.86-4.74-1.69-7.16.32-4.41,5.86-15.4,8.48-19.22.29-.43.65-1,1.19-1.12-1.48,6.36-7.53,13.38-5.23,20.14.59,1.74,2.07,4.67,4.3,3.27Z"/>
      <path class="cls-1" d="M19.83,105.78l-.83-.2c1.99-5.12,7.72-13.24,1.51-17.41-.9.16-1.78,2.84-2.26,3.63-.27.46-.3,1.16-.95.33.82-2.82,3.23-9.82,7.17-7.16,5.55,3.75-2.74,16.44-4.65,20.8Z"/>
      <path class="cls-1" d="M71.54,219.9c-.27-.47.08-1.05.27-1.49,1.45-3.38,4.97-7.52,6.66-11.01l13.16,8.58-7.4,11.94-12.68-8.02Z"/>
      <path class="cls-1" d="M97.08,167.91c.34.34-2.45,5.61-3.64,5.8l-33.45,16.08-12.44,7.07c1.11-2.01,1.88-4.28,3.37-6.07,3.22-3.86,19.64-10.99,25.09-13.53,6.95-3.25,14.03-6.33,21.08-9.35Z"/>
      <path class="cls-1" d="M71.47,206.11c11.71-10.38,25.43-18.83,35.67-30.85-3.6-2.74-6.48-3.86-4.74-8.94.79-2.31,5.34-7.48,7.91-5.98,3,1.74,2.14,9.36.29,11.99,2.52,1.8,3.53,3.39,2.21,6.49-.94,1.36-3.28-2.42-4.19-2.92-5.81,8.34-13.03,15.72-21.65,21.16l-15.5,9.06ZM106.62,164.22c-1.3.13-3.14,1.54-2.77,2.97.35,1.36,4.11,3.46,5.19,4.49,2.02-2.3,1.28-7.81-2.42-7.46Z"/>
      <path class="cls-1" d="M63.91,211.15c-1.54-.81-2.78-5.03-4.8-2.5-2.18,2.73-2.16,8.82-2.85,12.26-.11.52-1.4,6.99-2.41,5.77.86-1.91-4.97-12.61-5.67-12.58l-.64,1.25h-.61c-2.42-2.97-5.59-1.85-5.25-6.5.33-4.48,1.81-4.84,5.24-2.31,4.04,2.97,5.88,8.41,7.35,13.01.61-.08.7-.58.8-1.08.83-3.94,1.42-13.91,5.26-16.16,1.79-1.05,4.57,1.29,5.09,2.95.65,2.06-.76,4.1-1.51,5.89Z"/>
      <path class="cls-1" d="M145.77,176.73c-.26,3.57-2.93,10.12-6.71,11.15-2.74.75-5.27-4-5.44-6.38-.45-6.5,6.32-16.76,9.42-22.39,0,4.26-3.42,8.14-4.54,12.25-1,3.66-1.12,9.38,2.93,11.2,1.8.16,2.84-5.04,4.33-5.82Z"/>
      <path class="cls-1" d="M148.29,217.03c.06,4.27-5.51,15.43-10.29,9.66-3.33-4.02-1.28-9.58.44-13.85,1.78-4.39,4.49-9.09,7.12-13.02.48.26.15,1.26,0,1.69-1.97,6.11-7.83,12.52-4.01,19.52,3.13,5.74,4.69-2.11,6.72-4Z"/>
      <path class="cls-1" d="M116.39,204.86c-.84,4.53-6.24,16.16-11.09,8.35-3.3-5.32,1.55-14.29,4.15-19.28,1.23-2.37,2.6-4.99,4.21-7.13.58.29,0,1.13-.13,1.55-2.08,6.68-10.2,17.24-1.17,22.35.88-.21,2.97-6.91,4.03-5.84Z"/>
      <path class="cls-1" d="M114.71,237.18l-.64,2.94c3.91,2.82,8.21,4.25,6.05,9.81-1.13,2.9-2.18,4.21-5.38,4.69-10.68,1.59-3.9-13.73-.03-17.44ZM111.36,244.32c-1.52,3.23-.5,6.74,3.56,6.74,7.93,0-2.73-7.34-3.56-6.74Z"/>
    </g>
  </g>
</svg>