<?xml version="1.0" encoding="UTF-8"?>
<svg id="Layer_1" data-name="Layer 1" xmlns="http://www.w3.org/2000/svg" viewBox="0 0 1440 2960">
  <defs>
    <style>
      .cls-1 {
        letter-spacing: 0em;
      }

      .cls-2 {
        letter-spacing: -.05em;
      }

      .cls-3 {
        letter-spacing: 0em;
      }

      .cls-4 {
        letter-spacing: 0em;
      }

      .cls-5 {
        fill: #fff;
      }

      .cls-6 {
        letter-spacing: -.02em;
      }

      .cls-7 {
        letter-spacing: -.06em;
      }

      .cls-8 {
        letter-spacing: 0em;
      }

      .cls-9 {
        font-family: TimesNewRomanPS-BoldMT, 'Times New Roman';
        font-size: 97.15px;
      }

      .cls-9, .cls-10, .cls-11 {
        font-weight: 700;
      }

      .cls-12 {
        letter-spacing: 0em;
      }

      .cls-13 {
        letter-spacing: 0em;
      }

      .cls-14 {
        letter-spacing: -.02em;
      }

      .cls-15 {
        letter-spacing: 0em;
      }

      .cls-10 {
        font-size: 100.73px;
      }

      .cls-10, .cls-11 {
        font-family: Calibri-Bold, Calibri;
      }

      .cls-16 {
        letter-spacing: -.02em;
      }

      .cls-17 {
        font-family: Calibri, Calibri;
        font-size: 96.49px;
      }

      .cls-11 {
        font-size: 187.5px;
      }

      .cls-18 {
        letter-spacing: -.02em;
      }
    </style>
  </defs>
  <text class="cls-11" transform="translate(93.04 1315.27)">The Holy Quran </text>
  <text class="cls-11" transform="translate(179.51 2126.39)"><tspan x="0" y="0">Sabeh Ahmed</tspan></text>
  <text class="cls-10" transform="translate(146.42 2269.76)">Ahmadiyya Muslim Jam’at</text>
  <text class="cls-10" transform="translate(402.31 2390.64)">Mbale, Uganda</text>
  <text class="cls-17" transform="translate(443.89 1467.11)">Version v1.0.0</text>
  <text class="cls-17" transform="translate(452.16 1920.44)"><tspan x="0" y="0">D</tspan><tspan class="cls-8" x="59.36" y="0">e</tspan><tspan class="cls-4" x="106.9" y="0">v</tspan><tspan x="149.54" y="0">eloped </tspan><tspan class="cls-15" x="441.78" y="0">b</tspan><tspan x="492" y="0">y</tspan></text>
  <text class="cls-9" transform="translate(612.2 2543.41)"><tspan x="0" y="0">2026</tspan></text>
  <g id="Layer_2" data-name="Layer 2">
    <g id="Layer_1-2" data-name="Layer 1-2">
      <circle class="cls-5" cx="720" cy="600" r="450.16"/>
      <g>
        <circle class="cls-5" cx="720" cy="600" r="450.16"/>
        <path d="M720,1053.33c-249.97,0-453.33-203.36-453.33-453.33s203.36-453.33,453.33-453.33,453.33,203.36,453.33,453.33-203.37,453.33-453.33,453.33ZM720,153.01c-246.47,0-447,200.52-447,446.99s200.52,446.99,447,446.99,447-200.52,447-446.99-200.52-446.99-447-446.99Z"/>
      </g>
      <circle cx="720" cy="600.06" r="417.72"/>
      <path class="cls-5" d="M719.94,494.64h99.66c17.99-91.05-30.98-122.09-78.18-133.05h1.65c-.68-11.59-6.94-22.12-16.79-28.26,2.62-2.36,4.02-5.79,3.8-9.31.4-3.85-1.48-7.59-4.82-9.57v-14.13c1.33-1.26,2.05-3.04,1.96-4.88.12-1.78-.61-3.52-1.96-4.69v-14.83h-.63c1.71-1.25,2.69-3.27,2.6-5.39-1.23-6.73-3.7-13.18-7.29-19.01-3.58,5.83-6.05,12.28-7.29,19.01-.1,2.1.85,4.12,2.53,5.39h-.63v14.89c-1.35,1.17-2.07,2.91-1.96,4.69-.08,1.83.63,3.61,1.96,4.88v14.45c-3.08,2.02-4.78,5.58-4.44,9.25-.23,3.52,1.17,6.96,3.8,9.31-10.08,6.16-16.45,16.91-17.04,28.7h1.65c-48.98,11.15-96.18,59.81-78.18,133.05l99.6-.51Z"/>
      <polygon class="cls-5" points="604.69 651.64 603.61 651.64 595.56 656.26 595.56 673.18 603.61 677.81 604.69 677.81 614.13 677.81 720 677.81 825.81 677.81 835.25 677.81 836.26 677.81 844.37 673.18 844.37 656.26 836.26 651.64 835.25 651.64 825.56 651.64 720 651.64 614.32 651.64 604.69 651.64"/>
      <polygon class="cls-5" points="855.4 793.31 837.15 793.31 826.82 793.31 808 793.31 761.63 793.31 743.19 793.31 720 793.31 696.75 793.31 678.31 793.31 631.87 793.31 613.11 793.31 602.79 793.31 584.48 793.31 584.48 781.14 573.01 781.14 573.01 878.34 584.48 878.34 602.79 878.34 612.35 878.34 720 878.34 827.58 878.34 837.15 878.34 855.4 878.34 866.93 878.34 866.93 781.14 855.4 781.14 855.4 793.31"/>
      <path class="cls-5" d="M826.7,781.97l-.89-97.13h-211.74l-.82,97.13h19.01v-44.67c0-13.69,23.19-38.4,23.19-38.4,0,0,23,24.65,23,38.4v44.67h18.44v-44.67c0-13.69,23.25-38.4,23.25-38.4,0,0,23.19,24.65,23.19,38.4v44.67h18.44v-44.67c0-13.69,23.19-38.4,23.19-38.4,0,0,23.19,24.65,23.19,38.4v44.67h18.56Z"/>
      <polygon class="cls-5" points="720 889.68 612.23 889.68 610.77 1023.43 829.17 1023.43 827.65 889.68 720 889.68"/>
      <polygon class="cls-5" points="824.03 505.98 720 505.98 615.9 505.98 573.01 527.14 573.01 543.36 604.69 543.36 615.33 543.36 720 543.36 824.6 543.36 835.25 543.36 866.93 543.36 866.93 527.14 824.03 505.98"/>
      <path class="cls-5" d="M824.73,555.33h-209.65l-.63,89.27h211.05l-.76-89.27ZM720,634.15c-18.86,0-34.15-15.29-34.15-34.15s15.29-34.15,34.15-34.15,34.15,15.29,34.15,34.15h0c0,18.86-15.29,34.15-34.15,34.15Z"/>
      <polygon class="cls-5" points="716.64 601.4 719.94 571.93 723.29 598.67 734.26 614.38 716.64 601.4 716.64 601.4 716.64 601.4"/>
    </g>
  </g>
</svg>