<?xml version="1.0" encoding="UTF-8"?>
<svg id="Layer_1" data-name="Layer 1" xmlns="http://www.w3.org/2000/svg" viewBox="0 0 1440 2960">
  <defs>
    <style>
      .cls-5 { fill: #fff; }
      .cls-8 { font-family: BerlinSansFBDemi-Bold, 'Berlin Sans FB Demi', sans-serif; font-size: 97.15px; font-weight: 700; }
      .cls-9 { font-family: Calibri-Bold, Calibri, sans-serif; font-size: 100.73px; font-weight: 700; }
      .cls-10 { font-family: Calibri-Bold, Calibri, sans-serif; font-size: 187.5px; font-weight: 700; }
      .cls-17 { font-family: Calibri, Calibri, sans-serif; font-size: 96.49px; }
    </style>
  </defs>
  <text class="cls-10" text-anchor="middle" x="720" y="1465.3">The Holy Quran</text>
  <text class="cls-9" text-anchor="middle" x="720" y="2419.8">Ahmadiyya Muslim Jama’at</text>
  <text class="cls-9" text-anchor="middle" x="720" y="2540.7">Mbale, Uganda</text>
  <text class="cls-17" text-anchor="middle" x="720" y="1617.1">Version v1.0.0</text>
  <text class="cls-17" text-anchor="middle" x="720" y="2070.4">Developed by</text>
  <text class="cls-10" text-anchor="middle" x="720" y="2276.4">Sabeh Ahmed</text>
  <text class="cls-8" text-anchor="middle" x="720" y="2693.4">2026</text>
  <g id="Layer_2" data-name="Layer 2">
    <circle class="cls-5" cx="720" cy="750" r="450.16"/>
    <path d="M720,1203.33c-249.97,0-453.33-203.36-453.33-453.33s203.36-453.33,453.33-453.33,453.33,203.36,453.33,453.33-203.37,453.33-453.33,453.33ZM720,303.01c-246.47,0-447,200.52-447,446.99s200.52,446.99,447,446.99,447-200.52,447-446.99-200.52-446.99-447-446.99Z"/>
    <circle cx="720" cy="750.06" r="417.72"/>
    <path class="cls-5" d="M719.94,644.64h99.66c17.99-91.05-30.98-122.09-78.18-133.05h1.65c-.68-11.59-6.94-22.12-16.79-28.26,2.62-2.36,4.02-5.79,3.8-9.31.4-3.85-1.48-7.59-4.82-9.57v-14.13c1.33-1.26,2.05-3.04,1.96-4.88.12-1.78-.61-3.52-1.96-4.69v-14.83h-.63c1.71-1.25,2.69-3.27,2.6-5.39-1.23-6.73-3.7-13.18-7.29-19.01-3.58,5.83-6.05,12.28-7.29,19.01-.1,2.1.85,4.12,2.53,5.39h-.63v14.89c-1.35,1.17-2.07,2.91-1.96,4.69-.08,1.83.63,3.61,1.96,4.88v14.45c-3.08,2.02-4.78,5.58-4.44,9.25-.23,3.52,1.17,6.96,3.8,9.31-10.08,6.16-16.45,16.91-17.04,28.7h1.65c-48.98,11.15-96.18,59.81-78.18,133.05l99.6-.51Z"/>
    <polygon class="cls-5" points="604.69 801.64 603.61 801.64 595.56 806.26 595.56 823.18 603.61 827.81 604.69 827.81 614.13 827.81 720 827.81 825.81 827.81 835.25 827.81 836.26 827.81 844.37 823.18 844.37 806.26 836.26 801.64 835.25 801.64 825.56 801.64 720 801.64 614.32 801.64 604.69 801.64"/>
    <polygon class="cls-5" points="855.4 943.31 837.15 943.31 826.82 943.31 808 943.31 761.63 943.31 743.19 943.31 720 943.31 696.75 943.31 678.31 943.31 631.87 943.31 613.11 943.31 602.79 943.31 584.48 943.31 584.48 931.14 573.01 931.14 573.01 1028.34 584.48 1028.34 602.79 1028.34 612.35 1028.34 720 1028.34 827.58 1028.34 837.15 1028.34 855.4 1028.34 866.93 1028.34 866.93 931.14 855.4 931.14 855.4 943.31"/>
    <path class="cls-5" d="M826.7,931.97l-.89-97.13h-211.74l-.82,97.13h19.01v-44.67c0-13.69,23.19-38.4,23.19-38.4,0,0,23,24.65,23,38.4v44.67h18.44v-44.67c0-13.69,23.25-38.4,23.25-38.4,0,0,23.19,24.65,23.19,38.4v44.67h18.44v-44.67c0-13.69,23.19-38.4,23.19-38.4,0,0,23.19,24.65,23.19,38.4v44.67h18.56Z"/>
    <polygon class="cls-5" points="720 1039.68 612.23 1039.68 610.77 1173.43 829.17 1173.43 827.65 1039.68 720 1039.68"/>
    <polygon class="cls-5" points="824.03 655.98 720 655.98 615.9 655.98 573.01 677.14 573.01 693.36 604.69 693.36 615.33 693.36 720 693.36 824.6 693.36 835.25 693.36 866.93 693.36 866.93 677.14 824.03 655.98"/>
    <path class="cls-5" d="M824.73,705.33h-209.65l-.63,89.27h211.05l-.76-89.27ZM720,784.15c-18.86,0-34.15-15.29-34.15-34.15s15.29-34.15,34.15-34.15,34.15,15.29,34.15,34.15h0c0,18.86-15.29,34.15-34.15,34.15Z"/>
    <polygon class="cls-5" points="716.64 751.4 719.94 721.93 723.29 748.67 734.26 764.38 716.64 751.4 716.64 751.4 716.64 751.4"/>
  </g>
</svg>