<?xml version="1.0" encoding="UTF-8"?>
<svg id="Layer_1" data-name="Layer 1" xmlns="http://www.w3.org/2000/svg" viewBox="0 0 1440 2742.4">
  <defs>
    <style>
      .cls-1 {
        fill: #fff;
      }
    </style>
  </defs>
  <g>
    <path d="M265.57,2102.36c0,6.23-1.16,11.69-3.48,16.39-2.32,4.7-5.46,8.62-9.43,11.76-3.97,3.14-8.61,5.51-13.92,7.1s-10.99,2.38-17.03,2.38c-4.09,0-7.89-.34-11.4-1.01-3.51-.67-6.61-1.48-9.29-2.43-2.69-.95-4.93-1.94-6.73-2.98-1.8-1.04-3.1-1.95-3.89-2.75-.79-.79-1.36-1.94-1.69-3.43-.34-1.5-.5-3.65-.5-6.46,0-1.89.06-3.48.18-4.76.12-1.28.32-2.32.59-3.11.27-.79.64-1.36,1.1-1.69.46-.33.99-.5,1.6-.5.85,0,2.06.5,3.62,1.51,1.56,1.01,3.55,2.12,6,3.34,2.44,1.22,5.36,2.33,8.74,3.34,3.39,1.01,7.31,1.51,11.76,1.51,2.93,0,5.55-.35,7.87-1.05,2.32-.7,4.29-1.69,5.91-2.98,1.62-1.28,2.85-2.87,3.71-4.76.85-1.89,1.28-4,1.28-6.32,0-2.68-.73-4.99-2.2-6.91s-3.37-3.63-5.72-5.13c-2.35-1.5-5.02-2.9-8.01-4.21-2.99-1.31-6.07-2.7-9.25-4.17-3.17-1.46-6.26-3.13-9.25-4.99-2.99-1.86-5.66-4.09-8.01-6.68-2.35-2.59-4.26-5.66-5.72-9.2s-2.2-7.78-2.2-12.73c0-5.68,1.05-10.67,3.16-14.97,2.11-4.3,4.94-7.87,8.51-10.71,3.57-2.84,7.78-4.96,12.63-6.36,4.85-1.4,9.99-2.11,15.43-2.11,2.81,0,5.61.21,8.42.64,2.81.43,5.43,1.01,7.87,1.74,2.44.73,4.61,1.56,6.5,2.47,1.89.92,3.14,1.68,3.75,2.29.61.61,1.02,1.13,1.24,1.56.21.43.4.99.55,1.69.15.7.26,1.59.32,2.65.06,1.07.09,2.4.09,3.98,0,1.77-.05,3.27-.14,4.49-.09,1.22-.24,2.23-.46,3.02-.21.79-.52,1.37-.92,1.74-.4.37-.93.55-1.6.55s-1.74-.43-3.2-1.28c-1.46-.85-3.27-1.79-5.4-2.79-2.14-1.01-4.61-1.92-7.42-2.75-2.81-.82-5.89-1.24-9.25-1.24-2.62,0-4.91.32-6.87.96-1.95.64-3.59,1.53-4.9,2.66-1.31,1.13-2.29,2.49-2.93,4.07-.64,1.59-.96,3.27-.96,5.04,0,2.62.72,4.9,2.15,6.82,1.43,1.92,3.36,3.63,5.77,5.13,2.41,1.5,5.14,2.9,8.19,4.21,3.05,1.31,6.16,2.7,9.34,4.17,3.17,1.46,6.29,3.13,9.34,4.99,3.05,1.86,5.77,4.09,8.15,6.68,2.38,2.6,4.3,5.65,5.77,9.16,1.46,3.51,2.2,7.65,2.2,12.41Z"/>
    <path d="M352.18,2135.04c0,.86-.31,1.53-.92,2.01-.61.49-1.57.84-2.88,1.05-1.31.21-3.25.32-5.81.32-2.75,0-4.75-.11-6-.32-1.25-.21-2.14-.56-2.66-1.05-.52-.49-.78-1.16-.78-2.01v-6.5c-3.36,3.6-7.19,6.41-11.49,8.42-4.3,2.01-9.08,3.02-14.33,3.02-4.33,0-8.32-.57-11.95-1.69-3.63-1.13-6.77-2.81-9.43-5.04-2.65-2.23-4.71-4.99-6.18-8.29s-2.2-7.14-2.2-11.54c0-4.76.93-8.9,2.79-12.41,1.86-3.51,4.64-6.41,8.33-8.7,3.69-2.29,8.29-3.98,13.78-5.08,5.49-1.1,11.87-1.65,19.13-1.65h7.97v-4.94c0-2.56-.26-4.81-.78-6.73-.52-1.92-1.37-3.52-2.56-4.81-1.19-1.28-2.78-2.23-4.76-2.84-1.98-.61-4.44-.92-7.37-.92-3.85,0-7.28.43-10.3,1.28-3.02.86-5.69,1.8-8.01,2.84-2.32,1.04-4.26,1.98-5.81,2.84-1.56.86-2.82,1.28-3.8,1.28-.67,0-1.27-.21-1.79-.64-.52-.43-.95-1.04-1.28-1.83-.34-.79-.6-1.77-.78-2.93-.18-1.16-.27-2.44-.27-3.85,0-1.89.15-3.39.46-4.49.3-1.1.88-2.09,1.74-2.98.85-.88,2.35-1.86,4.49-2.93,2.14-1.07,4.64-2.06,7.51-2.98,2.87-.92,6-1.66,9.38-2.24,3.39-.58,6.88-.87,10.48-.87,6.41,0,11.89.63,16.43,1.88,4.55,1.25,8.29,3.17,11.22,5.77,2.93,2.59,5.07,5.94,6.41,10.03,1.34,4.09,2.01,8.94,2.01,14.56v54.93ZM329.57,2100.07h-8.79c-3.72,0-6.9.27-9.52.82-2.62.55-4.76,1.37-6.41,2.47s-2.85,2.43-3.62,3.98c-.76,1.56-1.14,3.34-1.14,5.36,0,3.42,1.08,6.1,3.25,8.06,2.17,1.95,5.17,2.93,9.02,2.93,3.23,0,6.21-.82,8.93-2.47,2.72-1.65,5.48-4.06,8.29-7.23v-13.92Z"/>
    <path d="M457.38,2092.84c0,7.26-.79,13.79-2.38,19.59-1.59,5.8-3.88,10.74-6.87,14.83-2.99,4.09-6.67,7.23-11.03,9.43-4.36,2.2-9.32,3.3-14.88,3.3-2.75,0-5.31-.26-7.69-.78-2.38-.52-4.65-1.36-6.82-2.52-2.17-1.16-4.3-2.62-6.41-4.39-2.11-1.77-4.26-3.91-6.45-6.41v8.88c0,.67-.17,1.24-.5,1.69-.34.46-.89.84-1.65,1.14-.76.3-1.79.52-3.07.64-1.28.12-2.84.18-4.67.18s-3.46-.06-4.71-.18c-1.25-.12-2.26-.34-3.02-.64-.76-.3-1.3-.69-1.6-1.14-.31-.46-.46-1.02-.46-1.69v-120.39c0-.61.18-1.16.55-1.65.37-.49.99-.9,1.88-1.24.88-.33,2.06-.6,3.52-.78,1.46-.18,3.33-.27,5.58-.27s4.12.09,5.58.27c1.46.18,2.64.44,3.52.78.88.34,1.51.75,1.88,1.24.37.49.55,1.04.55,1.65v45.14c2.07-2.07,4.15-3.84,6.23-5.31,2.07-1.46,4.15-2.67,6.23-3.62,2.07-.95,4.21-1.63,6.41-2.06,2.2-.43,4.52-.64,6.96-.64,6.04,0,11.17,1.21,15.38,3.62,4.21,2.41,7.64,5.66,10.3,9.75,2.66,4.09,4.59,8.87,5.81,14.33,1.22,5.46,1.83,11.21,1.83,17.26ZM433.48,2094.49c0-3.48-.26-6.83-.78-10.07-.52-3.24-1.42-6.1-2.7-8.61-1.28-2.5-2.95-4.5-4.99-6-2.05-1.5-4.62-2.24-7.74-2.24-1.53,0-3.02.21-4.49.64-1.46.43-2.98,1.16-4.53,2.2-1.56,1.04-3.16,2.38-4.81,4.03-1.65,1.65-3.39,3.69-5.22,6.13v27.1c3.23,4.15,6.33,7.31,9.29,9.48,2.96,2.17,6.06,3.25,9.29,3.25,2.99,0,5.52-.76,7.6-2.29,2.07-1.53,3.8-3.51,5.17-5.95,1.37-2.44,2.36-5.22,2.98-8.33.61-3.11.92-6.23.92-9.34Z"/>
    <path d="M551.22,2091.56c0,2.81-.63,4.88-1.88,6.23-1.25,1.34-2.98,2.01-5.17,2.01h-49.71c0,3.48.41,6.64,1.24,9.48.82,2.84,2.14,5.25,3.94,7.23,1.8,1.98,4.12,3.5,6.96,4.53,2.84,1.04,6.24,1.56,10.21,1.56s7.57-.29,10.62-.87c3.05-.58,5.69-1.22,7.92-1.92,2.23-.7,4.07-1.34,5.54-1.92s2.65-.87,3.57-.87c.55,0,1.01.11,1.37.32.37.21.67.59.92,1.14.24.55.41,1.33.5,2.33.09,1.01.14,2.27.14,3.8,0,1.34-.03,2.49-.09,3.43-.06.95-.15,1.75-.27,2.43-.12.67-.31,1.24-.55,1.69-.24.46-.56.9-.96,1.33-.4.43-1.48,1.01-3.25,1.74-1.77.73-4.03,1.45-6.77,2.15-2.75.7-5.89,1.31-9.43,1.83-3.54.52-7.32.78-11.35.78-7.26,0-13.63-.92-19.09-2.75-5.46-1.83-10.03-4.61-13.69-8.33-3.66-3.72-6.39-8.42-8.19-14.1-1.8-5.68-2.7-12.33-2.7-19.96s.95-13.81,2.84-19.64c1.89-5.83,4.64-10.77,8.24-14.83,3.6-4.06,7.98-7.16,13.14-9.29,5.16-2.14,10.97-3.2,17.44-3.2,6.83,0,12.68,1.01,17.53,3.02,4.85,2.01,8.83,4.81,11.95,8.38s5.4,7.8,6.87,12.68c1.46,4.88,2.2,10.19,2.2,15.93v3.66ZM528.88,2084.96c.18-6.47-1.11-11.55-3.89-15.24-2.78-3.69-7.07-5.54-12.86-5.54-2.93,0-5.48.55-7.65,1.65-2.17,1.1-3.97,2.58-5.4,4.44-1.44,1.86-2.53,4.06-3.3,6.59-.76,2.53-1.21,5.23-1.33,8.1h34.42Z"/>
    <path d="M648.18,2134.77c0,.61-.18,1.14-.55,1.6-.37.46-.98.84-1.83,1.14-.86.31-2.03.53-3.52.69-1.5.15-3.34.23-5.54.23s-4.14-.08-5.63-.23c-1.5-.15-2.67-.38-3.52-.69-.86-.3-1.46-.69-1.83-1.14-.37-.46-.55-.99-.55-1.6v-46.6c0-3.97-.29-7.08-.87-9.34-.58-2.26-1.42-4.2-2.52-5.81-1.1-1.62-2.52-2.87-4.26-3.75-1.74-.88-3.77-1.33-6.09-1.33-2.93,0-5.89,1.07-8.88,3.21-2.99,2.14-6.1,5.25-9.34,9.34v54.29c0,.61-.18,1.14-.55,1.6-.37.46-.99.84-1.88,1.14-.89.31-2.06.53-3.52.69s-3.33.23-5.58.23-4.12-.08-5.58-.23-2.64-.38-3.52-.69c-.89-.3-1.51-.69-1.88-1.14-.37-.46-.55-.99-.55-1.6v-120.39c0-.61.18-1.16.55-1.65.37-.49.99-.9,1.88-1.24.88-.33,2.06-.6,3.52-.78,1.46-.18,3.33-.27,5.58-.27s4.12.09,5.58.27c1.46.18,2.64.44,3.52.78.88.34,1.51.75,1.88,1.24.37.49.55,1.04.55,1.65v45.14c3.97-3.91,8.01-6.82,12.13-8.74s8.41-2.88,12.86-2.88c5.55,0,10.24.92,14.05,2.75,3.81,1.83,6.9,4.33,9.25,7.51,2.35,3.17,4.04,6.88,5.08,11.12,1.04,4.24,1.56,9.38,1.56,15.43v50.08Z"/>
    <path d="M811.6,2128.91c.73,2.2,1.19,3.94,1.37,5.22.18,1.28-.06,2.24-.73,2.88-.67.64-1.86,1.04-3.57,1.19-1.71.15-4.06.23-7.05.23s-5.54-.05-7.28-.14-3.07-.27-3.98-.55c-.92-.28-1.56-.66-1.92-1.14-.37-.49-.67-1.13-.92-1.92l-7.96-23.8h-44.5l-7.51,23.16c-.24.86-.56,1.57-.96,2.15-.4.58-1.04,1.04-1.92,1.37-.89.33-2.14.56-3.75.69-1.62.12-3.74.18-6.36.18-2.81,0-5.01-.09-6.59-.27-1.59-.18-2.69-.63-3.3-1.33-.61-.7-.82-1.69-.64-2.98.18-1.28.64-2.99,1.37-5.13l36.53-105.1c.37-1.04.79-1.88,1.28-2.52.49-.64,1.27-1.13,2.33-1.46,1.07-.33,2.55-.55,4.44-.64,1.89-.09,4.39-.14,7.51-.14,3.6,0,6.47.05,8.61.14,2.14.09,3.8.31,4.99.64,1.19.34,2.04.84,2.56,1.51.52.67.96,1.59,1.33,2.75l36.62,105.01ZM757.22,2042.03h-.09l-16.75,50.35h33.6l-16.75-50.35Z"/>
    <path d="M904.8,2134.77c0,.61-.18,1.14-.55,1.6-.37.46-.98.84-1.83,1.14-.86.31-2.03.53-3.52.69-1.5.15-3.34.23-5.54.23s-4.14-.08-5.63-.23c-1.5-.15-2.67-.38-3.52-.69-.86-.3-1.46-.69-1.83-1.14-.37-.46-.55-.99-.55-1.6v-46.6c0-3.97-.29-7.08-.87-9.34-.58-2.26-1.42-4.2-2.52-5.81-1.1-1.62-2.52-2.87-4.26-3.75s-3.77-1.33-6.09-1.33c-2.93,0-5.89,1.07-8.88,3.21-2.99,2.14-6.1,5.25-9.34,9.34v54.29c0,.61-.18,1.14-.55,1.6-.37.46-.99.84-1.88,1.14-.89.31-2.06.53-3.53.69s-3.33.23-5.58.23-4.12-.08-5.58-.23c-1.46-.15-2.64-.38-3.52-.69-.89-.3-1.51-.69-1.88-1.14-.37-.46-.55-.99-.55-1.6v-120.39c0-.61.18-1.16.55-1.65.37-.49.99-.9,1.88-1.24.88-.33,2.06-.6,3.52-.78,1.47-.18,3.33-.27,5.58-.27s4.12.09,5.58.27c1.46.18,2.64.44,3.53.78.88.34,1.51.75,1.88,1.24.37.49.55,1.04.55,1.65v45.14c3.97-3.91,8.01-6.82,12.13-8.74s8.41-2.88,12.86-2.88c5.55,0,10.24.92,14.05,2.75,3.81,1.83,6.9,4.33,9.25,7.51,2.35,3.17,4.04,6.88,5.08,11.12,1.04,4.24,1.56,9.38,1.56,15.43v50.08Z"/>
    <path d="M1057.33,2134.77c0,.61-.18,1.14-.55,1.6-.37.46-.98.84-1.83,1.14-.86.31-2.01.53-3.48.69s-3.33.23-5.58.23-4.21-.08-5.68-.23-2.64-.38-3.52-.69c-.89-.3-1.5-.69-1.83-1.14-.34-.46-.5-.99-.5-1.6v-48.43c0-2.75-.26-5.25-.78-7.51-.52-2.26-1.31-4.2-2.38-5.81-1.07-1.62-2.41-2.87-4.03-3.75-1.62-.88-3.56-1.33-5.81-1.33-2.75,0-5.52,1.07-8.33,3.21-2.81,2.14-5.86,5.25-9.16,9.34v54.29c0,.61-.18,1.14-.55,1.6-.37.46-.99.84-1.88,1.14-.89.31-2.06.53-3.53.69s-3.3.23-5.49.23-4.12-.08-5.58-.23-2.64-.38-3.52-.69c-.89-.3-1.51-.69-1.88-1.14-.37-.46-.55-.99-.55-1.6v-48.43c0-2.75-.26-5.25-.78-7.51-.52-2.26-1.3-4.2-2.33-5.81-1.04-1.62-2.38-2.87-4.03-3.75-1.65-.88-3.57-1.33-5.77-1.33-2.81,0-5.62,1.07-8.42,3.21-2.81,2.14-5.83,5.25-9.06,9.34v54.29c0,.61-.18,1.14-.55,1.6-.37.46-.99.84-1.88,1.14-.89.31-2.06.53-3.53.69s-3.33.23-5.58.23-4.12-.08-5.58-.23c-1.46-.15-2.64-.38-3.52-.69-.89-.3-1.51-.69-1.88-1.14-.37-.46-.55-.99-.55-1.6v-81.67c0-.61.15-1.14.46-1.6.3-.46.85-.84,1.65-1.14.79-.3,1.82-.53,3.07-.69,1.25-.15,2.82-.23,4.71-.23s3.57.08,4.85.23c1.28.15,2.27.38,2.98.69.7.31,1.2.69,1.51,1.14.3.46.46.99.46,1.6v9.43c4.52-4.88,9.02-8.54,13.5-10.99,4.49-2.44,9.17-3.66,14.05-3.66,3.36,0,6.38.35,9.06,1.05,2.68.7,5.08,1.71,7.19,3.02s3.92,2.88,5.45,4.71c1.53,1.83,2.81,3.88,3.85,6.13,2.44-2.62,4.84-4.88,7.19-6.77,2.35-1.89,4.67-3.43,6.96-4.62,2.29-1.19,4.58-2.07,6.87-2.66,2.29-.58,4.62-.87,7-.87,5.43,0,10.01.92,13.73,2.75,3.72,1.83,6.73,4.32,9.02,7.46,2.29,3.14,3.92,6.82,4.9,11.03.98,4.21,1.46,8.67,1.46,13.37v52.28Z"/>
    <path d="M1155.39,2091.56c0,2.81-.63,4.88-1.88,6.23-1.25,1.34-2.98,2.01-5.17,2.01h-49.71c0,3.48.41,6.64,1.24,9.48.82,2.84,2.14,5.25,3.94,7.23,1.8,1.98,4.12,3.5,6.96,4.53,2.84,1.04,6.24,1.56,10.21,1.56s7.57-.29,10.62-.87c3.05-.58,5.69-1.22,7.92-1.92,2.23-.7,4.07-1.34,5.54-1.92s2.66-.87,3.57-.87c.55,0,1.01.11,1.37.32.37.21.67.59.92,1.14.24.55.41,1.33.5,2.33.09,1.01.14,2.27.14,3.8,0,1.34-.03,2.49-.09,3.43-.06.95-.15,1.75-.27,2.43-.12.67-.31,1.24-.55,1.69-.25.46-.57.9-.96,1.33-.4.43-1.48,1.01-3.25,1.74-1.77.73-4.03,1.45-6.78,2.15-2.75.7-5.89,1.31-9.43,1.83-3.54.52-7.32.78-11.35.78-7.26,0-13.63-.92-19.09-2.75-5.46-1.83-10.03-4.61-13.69-8.33-3.66-3.72-6.39-8.42-8.19-14.1-1.8-5.68-2.7-12.33-2.7-19.96s.95-13.81,2.84-19.64c1.89-5.83,4.64-10.77,8.24-14.83,3.6-4.06,7.98-7.16,13.14-9.29,5.16-2.14,10.97-3.2,17.44-3.2,6.84,0,12.68,1.01,17.53,3.02,4.85,2.01,8.83,4.81,11.95,8.38,3.11,3.57,5.4,7.8,6.87,12.68,1.46,4.88,2.2,10.19,2.2,15.93v3.66ZM1133.05,2084.96c.18-6.47-1.11-11.55-3.89-15.24-2.78-3.69-7.07-5.54-12.86-5.54-2.93,0-5.48.55-7.64,1.65-2.17,1.1-3.97,2.58-5.4,4.44-1.43,1.86-2.53,4.06-3.3,6.59-.76,2.53-1.21,5.23-1.33,8.1h34.42Z"/>
    <path d="M1251.79,2134.77c0,.67-.15,1.24-.46,1.69-.31.46-.82.84-1.56,1.14s-1.73.52-2.98.64c-1.25.12-2.79.18-4.62.18-1.95,0-3.54-.06-4.76-.18-1.22-.12-2.21-.34-2.98-.64-.76-.3-1.31-.69-1.65-1.14-.34-.46-.5-1.02-.5-1.69v-9.06c-4.21,4.52-8.62,8.03-13.23,10.53-4.61,2.5-9.72,3.75-15.33,3.75-6.23,0-11.49-1.21-15.79-3.62-4.3-2.41-7.81-5.66-10.53-9.75-2.72-4.09-4.68-8.87-5.91-14.33-1.22-5.46-1.83-11.22-1.83-17.26,0-7.26.78-13.79,2.33-19.59,1.56-5.8,3.83-10.74,6.82-14.83,2.99-4.09,6.71-7.23,11.17-9.43,4.46-2.2,9.58-3.3,15.38-3.3,4.58,0,8.73.93,12.45,2.79,3.72,1.86,7.42,4.59,11.08,8.19v-44.22c0-.61.17-1.16.5-1.65.33-.49.95-.9,1.83-1.24.88-.33,2.06-.59,3.52-.78,1.46-.18,3.33-.27,5.58-.27s4.12.09,5.58.27c1.46.18,2.62.44,3.48.78.85.34,1.46.75,1.83,1.24.37.49.55,1.04.55,1.65v120.12ZM1228.9,2080.2c-3.3-4.15-6.45-7.32-9.48-9.52s-6.18-3.3-9.48-3.3c-2.99,0-5.57.75-7.74,2.24-2.17,1.5-3.91,3.49-5.22,6-1.31,2.5-2.29,5.3-2.93,8.38s-.96,6.24-.96,9.48c0,3.42.27,6.75.82,9.98.55,3.24,1.45,6.12,2.7,8.65,1.25,2.53,2.91,4.56,4.99,6.09,2.07,1.53,4.7,2.29,7.87,2.29,1.59,0,3.13-.23,4.62-.69,1.49-.46,3.02-1.2,4.58-2.24,1.56-1.04,3.16-2.39,4.81-4.07,1.65-1.68,3.45-3.74,5.4-6.18v-27.1Z"/>
  </g>
  <g>
    <path d="M206.25,2276.43c.39,1.18.64,2.12.74,2.8.1.69-.03,1.21-.39,1.55-.36.34-1,.56-1.92.64-.92.08-2.18.12-3.79.12s-2.98-.02-3.91-.07c-.93-.05-1.65-.15-2.14-.3-.49-.15-.84-.35-1.03-.61-.2-.26-.36-.61-.49-1.03l-4.28-12.79h-23.9l-4.03,12.44c-.13.46-.3.84-.52,1.16-.21.31-.56.56-1.03.74-.48.18-1.15.3-2.02.37-.87.07-2.01.1-3.42.1-1.51,0-2.69-.05-3.54-.15-.85-.1-1.44-.34-1.77-.71-.33-.38-.44-.91-.34-1.6.1-.69.34-1.61.74-2.75l19.62-56.46c.2-.56.43-1.01.69-1.35.26-.34.68-.61,1.25-.79.57-.18,1.37-.29,2.39-.34,1.02-.05,2.36-.07,4.03-.07,1.93,0,3.48.02,4.62.07,1.15.05,2.04.17,2.68.34.64.18,1.1.45,1.38.81.28.36.52.85.71,1.48l19.67,56.42ZM177.03,2229.75h-.05l-9,27.05h18.05l-9-27.05Z"/>
    <path d="M256.32,2279.58c0,.33-.1.61-.29.86s-.52.45-.98.62c-.46.16-1.09.29-1.89.37-.8.08-1.8.12-2.98.12s-2.22-.04-3.02-.12c-.8-.08-1.44-.2-1.89-.37-.46-.16-.79-.37-.98-.62s-.29-.53-.29-.86v-25.04c0-2.13-.16-3.8-.47-5.02-.31-1.21-.76-2.25-1.35-3.12-.59-.87-1.35-1.54-2.29-2.02-.93-.47-2.02-.71-3.27-.71-1.57,0-3.17.57-4.77,1.72-1.61,1.15-3.28,2.82-5.02,5.02v29.17c0,.33-.1.61-.29.86-.2.25-.53.45-1.01.62-.48.16-1.11.29-1.89.37-.79.08-1.79.12-3,.12s-2.21-.04-3-.12-1.42-.2-1.89-.37c-.48-.16-.81-.37-1.01-.62s-.3-.53-.3-.86v-64.68c0-.33.1-.62.3-.89.2-.26.53-.48,1.01-.66.47-.18,1.11-.32,1.89-.42.79-.1,1.79-.15,3-.15s2.21.05,3,.15c.79.1,1.42.24,1.89.42.48.18.81.4,1.01.66.2.26.29.56.29.89v24.25c2.13-2.1,4.3-3.66,6.52-4.7,2.21-1.03,4.52-1.55,6.91-1.55,2.98,0,5.5.49,7.55,1.48,2.05.98,3.71,2.33,4.97,4.03,1.26,1.71,2.17,3.7,2.73,5.98.56,2.28.84,5.04.84,8.29v26.91Z"/>
    <path d="M338.26,2279.58c0,.33-.1.61-.3.86s-.52.45-.98.62c-.46.16-1.08.29-1.87.37s-1.79.12-3,.12-2.26-.04-3.05-.12-1.42-.2-1.89-.37c-.48-.16-.8-.37-.98-.62-.18-.25-.27-.53-.27-.86v-26.02c0-1.48-.14-2.82-.42-4.03-.28-1.21-.71-2.25-1.28-3.12-.57-.87-1.3-1.54-2.16-2.02-.87-.47-1.91-.71-3.12-.71-1.48,0-2.97.57-4.48,1.72-1.51,1.15-3.15,2.82-4.92,5.02v29.17c0,.33-.1.61-.29.86s-.53.45-1.01.62c-.48.16-1.11.29-1.89.37-.79.08-1.77.12-2.95.12s-2.21-.04-3-.12c-.79-.08-1.42-.2-1.89-.37-.48-.16-.81-.37-1.01-.62-.2-.25-.29-.53-.29-.86v-26.02c0-1.48-.14-2.82-.42-4.03-.28-1.21-.7-2.25-1.25-3.12-.56-.87-1.28-1.54-2.16-2.02-.89-.47-1.92-.71-3.1-.71-1.51,0-3.02.57-4.53,1.72-1.51,1.15-3.13,2.82-4.87,5.02v29.17c0,.33-.1.61-.29.86-.2.25-.53.45-1.01.62-.48.16-1.11.29-1.89.37-.79.08-1.79.12-3,.12s-2.21-.04-3-.12-1.42-.2-1.89-.37c-.48-.16-.81-.37-1.01-.62s-.3-.53-.3-.86v-43.87c0-.33.08-.62.25-.86.16-.25.46-.45.89-.61.43-.16.98-.29,1.65-.37.67-.08,1.52-.12,2.53-.12s1.92.04,2.61.12c.69.08,1.22.21,1.6.37.38.16.65.37.81.61.16.25.25.53.25.86v5.07c2.43-2.62,4.84-4.59,7.25-5.9s4.93-1.97,7.55-1.97c1.8,0,3.43.19,4.87.57,1.44.38,2.73.92,3.86,1.62,1.13.71,2.11,1.55,2.93,2.53.82.98,1.51,2.08,2.07,3.3,1.31-1.41,2.6-2.62,3.86-3.64,1.26-1.02,2.51-1.84,3.74-2.48s2.46-1.11,3.69-1.43c1.23-.31,2.48-.47,3.76-.47,2.92,0,5.38.49,7.38,1.48,2,.98,3.62,2.32,4.84,4.01,1.23,1.69,2.11,3.66,2.63,5.93.52,2.26.79,4.66.79,7.18v28.09Z"/>
    <path d="M387.79,2279.73c0,.46-.16.82-.49,1.08-.33.26-.84.45-1.55.57-.71.11-1.75.17-3.12.17-1.48,0-2.55-.06-3.22-.17-.67-.12-1.15-.3-1.43-.57-.28-.26-.42-.62-.42-1.08v-3.49c-1.8,1.93-3.86,3.44-6.17,4.52-2.31,1.08-4.88,1.62-7.7,1.62-2.33,0-4.47-.3-6.42-.91-1.95-.61-3.64-1.51-5.07-2.71s-2.53-2.68-3.32-4.45c-.79-1.77-1.18-3.84-1.18-6.2,0-2.56.5-4.78,1.5-6.66,1-1.89,2.49-3.44,4.48-4.67,1.98-1.23,4.45-2.14,7.4-2.73,2.95-.59,6.38-.88,10.28-.88h4.28v-2.66c0-1.38-.14-2.58-.42-3.62-.28-1.03-.74-1.89-1.38-2.58-.64-.69-1.49-1.2-2.56-1.52-1.07-.33-2.39-.49-3.96-.49-2.07,0-3.91.23-5.53.69-1.62.46-3.06.97-4.3,1.52-1.25.56-2.29,1.07-3.12,1.53-.84.46-1.52.69-2.04.69-.36,0-.68-.11-.96-.34-.28-.23-.51-.56-.69-.98-.18-.43-.32-.95-.42-1.57-.1-.62-.15-1.31-.15-2.07,0-1.02.08-1.82.25-2.41.16-.59.47-1.12.93-1.6.46-.47,1.26-1,2.41-1.57,1.15-.57,2.49-1.11,4.03-1.6,1.54-.49,3.22-.89,5.04-1.21,1.82-.31,3.7-.47,5.63-.47,3.44,0,6.39.34,8.83,1.01,2.44.67,4.45,1.71,6.03,3.1,1.57,1.39,2.72,3.19,3.44,5.39.72,2.2,1.08,4.8,1.08,7.82v29.51ZM375.64,2260.94h-4.72c-2,0-3.71.15-5.12.44-1.41.29-2.56.74-3.44,1.33s-1.53,1.3-1.94,2.14c-.41.84-.61,1.79-.61,2.88,0,1.84.58,3.28,1.75,4.33,1.16,1.05,2.78,1.57,4.84,1.57,1.74,0,3.34-.44,4.8-1.33,1.46-.88,2.94-2.18,4.45-3.89v-7.48Z"/>
    <path d="M441.75,2279.58c0,.36-.08.66-.25.91s-.44.45-.84.62-.93.28-1.6.34c-.67.07-1.5.1-2.48.1-1.05,0-1.9-.03-2.56-.1-.66-.07-1.19-.18-1.6-.34-.41-.16-.71-.37-.89-.62-.18-.25-.27-.55-.27-.91v-4.87c-2.26,2.43-4.63,4.31-7.11,5.66-2.48,1.34-5.22,2.02-8.24,2.02-3.34,0-6.17-.65-8.48-1.94-2.31-1.29-4.2-3.04-5.66-5.24-1.46-2.2-2.52-4.76-3.17-7.7-.66-2.93-.98-6.03-.98-9.27,0-3.9.42-7.41,1.25-10.53.84-3.11,2.06-5.77,3.66-7.97,1.61-2.2,3.61-3.89,6-5.07,2.39-1.18,5.15-1.77,8.26-1.77,2.46,0,4.69.5,6.69,1.5,2,1,3.98,2.47,5.95,4.4v-23.76c0-.33.09-.62.27-.89.18-.26.51-.48.98-.66.47-.18,1.11-.32,1.89-.42.79-.1,1.79-.15,3-.15s2.21.05,3,.15c.79.1,1.41.24,1.87.42.46.18.79.4.98.66.2.26.29.56.29.89v64.53ZM429.45,2250.26c-1.77-2.23-3.47-3.93-5.09-5.12s-3.32-1.77-5.09-1.77c-1.61,0-2.99.4-4.16,1.21-1.16.8-2.1,1.88-2.8,3.22-.71,1.34-1.23,2.84-1.57,4.5-.34,1.66-.52,3.35-.52,5.09,0,1.84.15,3.62.44,5.36.29,1.74.78,3.29,1.45,4.65.67,1.36,1.57,2.45,2.68,3.27,1.11.82,2.52,1.23,4.23,1.23.85,0,1.68-.12,2.48-.37.8-.25,1.62-.65,2.46-1.21.84-.56,1.7-1.29,2.58-2.19.89-.9,1.85-2.01,2.9-3.32v-14.56Z"/>
    <path d="M467.52,2220.85c0,2.49-.51,4.21-1.52,5.17-1.02.95-2.9,1.43-5.66,1.43s-4.67-.46-5.63-1.38c-.97-.92-1.45-2.57-1.45-4.97s.5-4.22,1.5-5.19c1-.97,2.89-1.45,5.68-1.45s4.62.47,5.61,1.4c.98.93,1.48,2.6,1.48,4.99ZM466.59,2279.58c0,.33-.1.61-.29.86-.2.25-.53.45-1.01.62-.48.16-1.11.29-1.89.37-.79.08-1.79.12-3,.12s-2.21-.04-3-.12-1.42-.2-1.89-.37c-.48-.16-.81-.37-1.01-.62s-.3-.53-.3-.86v-43.78c0-.33.1-.62.3-.86s.53-.46,1.01-.64c.47-.18,1.11-.32,1.89-.42.79-.1,1.79-.15,3-.15s2.21.05,3,.15c.79.1,1.42.24,1.89.42.48.18.81.39,1.01.64.2.25.29.53.29.86v43.78Z"/>
    <path d="M504.36,2281.25l-5.31,15.54c-.29.82-1.1,1.41-2.41,1.77-1.31.36-3.23.54-5.75.54-1.31,0-2.36-.06-3.15-.17-.79-.12-1.38-.3-1.77-.57s-.61-.59-.64-.98c-.03-.39.06-.87.29-1.43l5.85-14.71c-.43-.2-.81-.5-1.16-.91-.34-.41-.6-.84-.76-1.3l-15.1-40.33c-.43-1.15-.64-2.02-.64-2.63s.2-1.08.59-1.43,1.06-.58,1.99-.71c.93-.13,2.17-.2,3.71-.2,1.41,0,2.52.02,3.34.07.82.05,1.46.17,1.92.37.46.2.8.5,1.03.91.23.41.46.99.69,1.75l10.33,29.36h.15l9.44-29.95c.2-.85.45-1.42.76-1.7.31-.28.83-.48,1.55-.61.72-.13,1.98-.2,3.79-.2,1.41,0,2.58.07,3.52.2s1.62.38,2.07.74c.44.36.66.84.66,1.45s-.13,1.32-.39,2.14l-14.61,42.99Z"/>
    <path d="M552.56,2281.25l-5.31,15.54c-.29.82-1.1,1.41-2.41,1.77-1.31.36-3.23.54-5.75.54-1.31,0-2.36-.06-3.15-.17-.79-.12-1.38-.3-1.77-.57s-.61-.59-.64-.98c-.03-.39.06-.87.29-1.43l5.85-14.71c-.43-.2-.81-.5-1.16-.91-.34-.41-.6-.84-.76-1.3l-15.1-40.33c-.43-1.15-.64-2.02-.64-2.63s.2-1.08.59-1.43,1.06-.58,1.99-.71c.93-.13,2.17-.2,3.71-.2,1.41,0,2.52.02,3.34.07.82.05,1.46.17,1.92.37.46.2.8.5,1.03.91.23.41.46.99.69,1.75l10.33,29.36h.15l9.44-29.95c.2-.85.45-1.42.76-1.7.31-.28.83-.48,1.55-.61.72-.13,1.98-.2,3.79-.2,1.41,0,2.58.07,3.52.2s1.62.38,2.07.74c.44.36.66.84.66,1.45s-.13,1.32-.39,2.14l-14.61,42.99Z"/>
    <path d="M610.7,2279.73c0,.46-.16.82-.49,1.08-.33.26-.84.45-1.55.57-.71.11-1.75.17-3.12.17-1.48,0-2.55-.06-3.22-.17-.67-.12-1.15-.3-1.43-.57-.28-.26-.42-.62-.42-1.08v-3.49c-1.8,1.93-3.86,3.44-6.17,4.52-2.31,1.08-4.88,1.62-7.7,1.62-2.33,0-4.47-.3-6.42-.91-1.95-.61-3.64-1.51-5.07-2.71s-2.53-2.68-3.32-4.45c-.79-1.77-1.18-3.84-1.18-6.2,0-2.56.5-4.78,1.5-6.66,1-1.89,2.49-3.44,4.48-4.67,1.98-1.23,4.45-2.14,7.4-2.73,2.95-.59,6.38-.88,10.28-.88h4.28v-2.66c0-1.38-.14-2.58-.42-3.62-.28-1.03-.74-1.89-1.38-2.58-.64-.69-1.49-1.2-2.56-1.52-1.07-.33-2.39-.49-3.96-.49-2.07,0-3.91.23-5.53.69-1.62.46-3.06.97-4.3,1.52-1.25.56-2.29,1.07-3.12,1.53-.84.46-1.52.69-2.04.69-.36,0-.68-.11-.96-.34-.28-.23-.51-.56-.69-.98-.18-.43-.32-.95-.42-1.57-.1-.62-.15-1.31-.15-2.07,0-1.02.08-1.82.25-2.41.16-.59.47-1.12.93-1.6.46-.47,1.26-1,2.41-1.57,1.15-.57,2.49-1.11,4.03-1.6,1.54-.49,3.22-.89,5.04-1.21,1.82-.31,3.7-.47,5.63-.47,3.44,0,6.39.34,8.83,1.01,2.44.67,4.45,1.71,6.03,3.1,1.57,1.39,2.72,3.19,3.44,5.39.72,2.2,1.08,4.8,1.08,7.82v29.51ZM598.55,2260.94h-4.72c-2,0-3.71.15-5.12.44-1.41.29-2.56.74-3.44,1.33s-1.53,1.3-1.94,2.14c-.41.84-.61,1.79-.61,2.88,0,1.84.58,3.28,1.75,4.33,1.16,1.05,2.78,1.57,4.84,1.57,1.74,0,3.34-.44,4.8-1.33,1.46-.88,2.94-2.18,4.45-3.89v-7.48Z"/>
    <path d="M720.73,2279.48c0,.33-.09.62-.27.88-.18.26-.51.48-.98.64-.48.17-1.11.29-1.89.39s-1.79.15-3,.15-2.16-.05-2.95-.15c-.79-.1-1.41-.23-1.87-.39-.46-.16-.79-.38-.98-.64-.2-.26-.29-.56-.29-.88v-51.79h-.1l-18.44,51.74c-.13.43-.34.78-.64,1.06-.3.28-.7.5-1.21.66-.51.16-1.16.27-1.94.32-.79.05-1.74.07-2.85.07s-2.07-.04-2.85-.12-1.44-.21-1.94-.39c-.51-.18-.91-.4-1.21-.66-.29-.26-.49-.57-.59-.93l-17.81-51.74h-.1v51.79c0,.33-.09.62-.27.88-.18.26-.52.48-1.01.64-.49.17-1.12.29-1.89.39s-1.76.15-2.98.15-2.16-.05-2.95-.15-1.42-.23-1.89-.39c-.48-.16-.8-.38-.98-.64-.18-.26-.27-.56-.27-.88v-56.71c0-1.67.44-2.95,1.33-3.84s2.07-1.33,3.54-1.33h8.46c1.51,0,2.8.12,3.89.37s2.02.66,2.8,1.23c.79.57,1.44,1.33,1.97,2.26.52.93.98,2.09,1.38,3.47l13.77,37.92h.2l14.26-37.82c.43-1.38.89-2.54,1.4-3.49.51-.95,1.1-1.72,1.77-2.31.67-.59,1.47-1.01,2.39-1.25s1.98-.37,3.2-.37h8.71c.89,0,1.65.12,2.29.34.64.23,1.16.57,1.57,1.01.41.44.72.98.93,1.62.21.64.32,1.37.32,2.19v56.71Z"/>
    <path d="M775.47,2279.58c0,.33-.08.61-.25.86s-.45.45-.86.62c-.41.16-.95.29-1.62.37-.67.08-1.52.12-2.53.12-1.08,0-1.96-.04-2.63-.12s-1.21-.2-1.6-.37-.67-.37-.84-.62-.25-.53-.25-.86v-5.07c-2.43,2.62-4.89,4.59-7.4,5.9-2.51,1.31-5.11,1.97-7.8,1.97-3.02,0-5.55-.49-7.6-1.48-2.05-.98-3.71-2.33-4.97-4.03-1.26-1.7-2.17-3.68-2.71-5.93-.54-2.25-.81-5.04-.81-8.39v-26.86c0-.33.09-.62.27-.86.18-.25.51-.45.98-.61.47-.16,1.11-.29,1.92-.37.8-.08,1.79-.12,2.98-.12s2.21.04,3,.12c.79.08,1.42.21,1.89.37.47.16.81.37,1.01.61.2.25.29.53.29.86v24.79c0,2.3.15,4.05.44,5.26.29,1.21.75,2.25,1.35,3.12.61.87,1.38,1.54,2.31,2.02.93.48,2.02.71,3.27.71,1.57,0,3.16-.57,4.75-1.72,1.59-1.15,3.29-2.82,5.09-5.02v-29.17c0-.33.09-.62.27-.86.18-.25.51-.45.98-.61.47-.16,1.11-.29,1.89-.37.79-.08,1.79-.12,3-.12s2.21.04,3,.12c.79.08,1.41.21,1.87.37s.79.37.98.61c.2.25.29.53.29.86v43.87Z"/>
    <path d="M818.81,2267.18c0,2.49-.47,4.69-1.4,6.59-.93,1.9-2.25,3.49-3.96,4.77-1.71,1.28-3.72,2.24-6.05,2.88-2.33.64-4.85.96-7.57.96-1.64,0-3.21-.12-4.7-.37-1.49-.25-2.83-.56-4.01-.93-1.18-.38-2.16-.76-2.95-1.16s-1.36-.76-1.72-1.11c-.36-.34-.64-.89-.84-1.62-.2-.74-.29-1.83-.29-3.27,0-.95.03-1.71.1-2.29.07-.57.16-1.03.3-1.38.13-.34.29-.57.49-.69.2-.11.44-.17.74-.17.36,0,.89.21,1.6.61.7.41,1.58.86,2.63,1.35,1.05.49,2.27.95,3.67,1.38,1.39.43,2.98.64,4.75.64,1.11,0,2.11-.11,2.98-.34.87-.23,1.62-.56,2.26-.98s1.12-.97,1.45-1.62c.33-.66.49-1.41.49-2.26,0-.98-.3-1.83-.91-2.53-.61-.71-1.41-1.32-2.41-1.84-1-.52-2.13-1.02-3.39-1.48-1.26-.46-2.56-.97-3.88-1.52-1.33-.56-2.62-1.2-3.89-1.92-1.26-.72-2.39-1.61-3.39-2.66s-1.8-2.31-2.41-3.79-.91-3.25-.91-5.31.41-4.03,1.23-5.78c.82-1.75,2-3.25,3.54-4.5,1.54-1.25,3.42-2.21,5.63-2.9,2.21-.69,4.7-1.03,7.45-1.03,1.38,0,2.71.1,4.01.29,1.29.2,2.47.44,3.52.74,1.05.29,1.93.61,2.66.96.72.34,1.24.64,1.55.88.31.25.53.49.66.74.13.25.23.54.29.88.07.34.12.77.17,1.28.05.51.07,1.14.07,1.89,0,.89-.02,1.61-.07,2.16-.05.56-.13,1-.25,1.33-.12.33-.27.55-.47.66-.2.12-.43.17-.69.17-.29,0-.75-.17-1.38-.52-.62-.34-1.4-.71-2.34-1.11s-2.02-.76-3.25-1.11-2.63-.52-4.21-.52c-1.12,0-2.08.12-2.9.34-.82.23-1.49.56-2.02.98-.52.43-.92.93-1.18,1.5-.26.57-.39,1.19-.39,1.84,0,1.02.31,1.87.93,2.56s1.44,1.3,2.46,1.82c1.02.52,2.17,1.02,3.47,1.48,1.3.46,2.61.96,3.94,1.5s2.64,1.17,3.93,1.89c1.29.72,2.45,1.61,3.47,2.66,1.02,1.05,1.84,2.3,2.46,3.76s.93,3.19.93,5.19Z"/>
    <path d="M840.5,2279.58c0,.33-.1.61-.29.86-.2.25-.53.45-1.01.62-.48.16-1.11.29-1.89.37s-1.79.12-3,.12-2.21-.04-3-.12-1.42-.2-1.89-.37c-.48-.16-.81-.37-1.01-.62-.2-.25-.29-.53-.29-.86v-64.68c0-.33.1-.62.29-.89.2-.26.53-.48,1.01-.66.47-.18,1.11-.32,1.89-.42.79-.1,1.79-.15,3-.15s2.21.05,3,.15c.79.1,1.42.24,1.89.42.47.18.81.4,1.01.66.2.26.29.56.29.89v64.68Z"/>
    <path d="M866.17,2220.85c0,2.49-.51,4.21-1.52,5.17-1.02.95-2.9,1.43-5.66,1.43s-4.67-.46-5.63-1.38c-.97-.92-1.45-2.57-1.45-4.97s.5-4.22,1.5-5.19c1-.97,2.89-1.45,5.68-1.45s4.62.47,5.61,1.4c.98.93,1.48,2.6,1.48,4.99ZM865.24,2279.58c0,.33-.1.61-.29.86-.2.25-.53.45-1.01.62-.48.16-1.11.29-1.89.37s-1.79.12-3,.12-2.21-.04-3-.12-1.42-.2-1.89-.37c-.48-.16-.81-.37-1.01-.62-.2-.25-.29-.53-.29-.86v-43.78c0-.33.1-.62.29-.86.2-.25.53-.46,1.01-.64.47-.18,1.11-.32,1.89-.42.79-.1,1.79-.15,3-.15s2.21.05,3,.15c.79.1,1.42.24,1.89.42.47.18.81.39,1.01.64.2.25.29.53.29.86v43.78Z"/>
    <path d="M947.38,2279.58c0,.33-.1.61-.29.86-.2.25-.53.45-.98.62s-1.08.29-1.87.37c-.79.08-1.79.12-3,.12s-2.26-.04-3.05-.12c-.79-.08-1.42-.2-1.89-.37s-.8-.37-.98-.62c-.18-.25-.27-.53-.27-.86v-26.02c0-1.48-.14-2.82-.42-4.03-.28-1.21-.71-2.25-1.28-3.12-.57-.87-1.3-1.54-2.16-2.02-.87-.47-1.91-.71-3.12-.71-1.48,0-2.97.57-4.48,1.72-1.51,1.15-3.15,2.82-4.92,5.02v29.17c0,.33-.1.61-.29.86-.2.25-.53.45-1.01.62s-1.11.29-1.89.37-1.77.12-2.95.12-2.21-.04-3-.12-1.42-.2-1.89-.37c-.48-.16-.81-.37-1.01-.62-.2-.25-.29-.53-.29-.86v-26.02c0-1.48-.14-2.82-.42-4.03-.28-1.21-.7-2.25-1.25-3.12-.56-.87-1.28-1.54-2.17-2.02-.88-.47-1.92-.71-3.1-.71-1.51,0-3.02.57-4.52,1.72-1.51,1.15-3.13,2.82-4.87,5.02v29.17c0,.33-.1.61-.29.86-.2.25-.53.45-1.01.62-.48.16-1.11.29-1.89.37s-1.79.12-3,.12-2.21-.04-3-.12-1.42-.2-1.89-.37c-.48-.16-.81-.37-1.01-.62-.2-.25-.29-.53-.29-.86v-43.87c0-.33.08-.62.25-.86.16-.25.46-.45.89-.61.43-.16.97-.29,1.65-.37.67-.08,1.52-.12,2.53-.12s1.92.04,2.61.12c.69.08,1.22.21,1.6.37s.65.37.81.61c.16.25.25.53.25.86v5.07c2.43-2.62,4.84-4.59,7.25-5.9s4.93-1.97,7.55-1.97c1.8,0,3.43.19,4.87.57,1.44.38,2.73.92,3.86,1.62,1.13.71,2.11,1.55,2.93,2.53.82.98,1.51,2.08,2.07,3.3,1.31-1.41,2.6-2.62,3.86-3.64,1.26-1.02,2.51-1.84,3.74-2.48s2.46-1.11,3.69-1.43c1.23-.31,2.48-.47,3.76-.47,2.92,0,5.38.49,7.38,1.48s3.62,2.32,4.84,4.01c1.23,1.69,2.11,3.66,2.63,5.93s.79,4.66.79,7.18v28.09Z"/>
    <path d="M1002.61,2263.54c0,2.89-.27,5.48-.81,7.8s-1.46,4.28-2.75,5.9c-1.3,1.62-2.99,2.86-5.09,3.71-2.1.85-4.69,1.28-7.77,1.28-.98,0-1.96-.07-2.93-.22-.97-.15-1.85-.34-2.66-.57-.8-.23-1.5-.47-2.09-.74-.59-.26-.98-.5-1.18-.71-.2-.21-.36-.43-.49-.66s-.25-.53-.34-.91-.16-.84-.2-1.4c-.03-.56-.05-1.26-.05-2.12,0-1.11.02-2.06.07-2.83.05-.77.13-1.38.25-1.82s.28-.75.49-.93c.21-.18.48-.27.81-.27.29,0,.64.11,1.03.32s.84.43,1.33.66c.49.23,1.07.45,1.72.66.66.21,1.43.32,2.31.32s1.66-.12,2.34-.37,1.23-.67,1.67-1.28c.44-.61.78-1.42,1.01-2.44.23-1.02.34-2.33.34-3.93v-43.73c0-.33.11-.61.32-.86.21-.25.56-.45,1.03-.61.47-.16,1.14-.29,1.99-.37.85-.08,1.9-.12,3.15-.12s2.28.04,3.1.12c.82.08,1.48.21,1.99.37.51.16.87.37,1.08.61.21.25.32.53.32.86v44.27Z"/>
    <path d="M1053.03,2279.73c0,.46-.17.82-.49,1.08-.33.26-.84.45-1.55.57-.71.11-1.75.17-3.12.17-1.48,0-2.55-.06-3.22-.17-.67-.12-1.15-.3-1.43-.57s-.42-.62-.42-1.08v-3.49c-1.8,1.93-3.86,3.44-6.17,4.52-2.31,1.08-4.88,1.62-7.7,1.62-2.33,0-4.47-.3-6.42-.91s-3.64-1.51-5.07-2.71c-1.43-1.2-2.53-2.68-3.32-4.45-.79-1.77-1.18-3.84-1.18-6.2,0-2.56.5-4.78,1.5-6.66s2.49-3.44,4.48-4.67c1.98-1.23,4.45-2.14,7.4-2.73,2.95-.59,6.38-.88,10.28-.88h4.28v-2.66c0-1.38-.14-2.58-.42-3.62-.28-1.03-.74-1.89-1.38-2.58-.64-.69-1.49-1.2-2.56-1.52-1.07-.33-2.39-.49-3.96-.49-2.07,0-3.91.23-5.53.69-1.62.46-3.06.97-4.3,1.52-1.25.56-2.29,1.07-3.12,1.53-.84.46-1.52.69-2.04.69-.36,0-.68-.11-.96-.34-.28-.23-.51-.56-.69-.98-.18-.43-.32-.95-.42-1.57-.1-.62-.15-1.31-.15-2.07,0-1.02.08-1.82.25-2.41.16-.59.47-1.12.93-1.6.46-.47,1.26-1,2.41-1.57,1.15-.57,2.49-1.11,4.03-1.6,1.54-.49,3.22-.89,5.04-1.21,1.82-.31,3.7-.47,5.63-.47,3.44,0,6.39.34,8.83,1.01,2.44.67,4.45,1.71,6.03,3.1s2.72,3.19,3.44,5.39,1.08,4.8,1.08,7.82v29.51ZM1040.88,2260.94h-4.72c-2,0-3.71.15-5.12.44-1.41.29-2.56.74-3.44,1.33-.88.59-1.53,1.3-1.94,2.14-.41.84-.62,1.79-.62,2.88,0,1.84.58,3.28,1.75,4.33s2.78,1.57,4.84,1.57c1.74,0,3.34-.44,4.8-1.33,1.46-.88,2.94-2.18,4.45-3.89v-7.48Z"/>
    <path d="M1135.17,2279.58c0,.33-.1.61-.29.86-.2.25-.53.45-.98.62s-1.08.29-1.87.37c-.79.08-1.79.12-3,.12s-2.26-.04-3.05-.12c-.79-.08-1.42-.2-1.89-.37s-.8-.37-.98-.62c-.18-.25-.27-.53-.27-.86v-26.02c0-1.48-.14-2.82-.42-4.03-.28-1.21-.71-2.25-1.28-3.12-.57-.87-1.3-1.54-2.16-2.02-.87-.47-1.91-.71-3.12-.71-1.48,0-2.97.57-4.48,1.72-1.51,1.15-3.15,2.82-4.92,5.02v29.17c0,.33-.1.61-.29.86-.2.25-.53.45-1.01.62s-1.11.29-1.89.37-1.77.12-2.95.12-2.21-.04-3-.12-1.42-.2-1.89-.37c-.48-.16-.81-.37-1.01-.62-.2-.25-.29-.53-.29-.86v-26.02c0-1.48-.14-2.82-.42-4.03-.28-1.21-.7-2.25-1.25-3.12-.56-.87-1.28-1.54-2.17-2.02-.88-.47-1.92-.71-3.1-.71-1.51,0-3.02.57-4.52,1.72-1.51,1.15-3.13,2.82-4.87,5.02v29.17c0,.33-.1.61-.29.86-.2.25-.53.45-1.01.62-.48.16-1.11.29-1.89.37s-1.79.12-3,.12-2.21-.04-3-.12-1.42-.2-1.89-.37c-.48-.16-.81-.37-1.01-.62-.2-.25-.29-.53-.29-.86v-43.87c0-.33.08-.62.25-.86.16-.25.46-.45.89-.61.43-.16.97-.29,1.65-.37.67-.08,1.52-.12,2.53-.12s1.92.04,2.61.12c.69.08,1.22.21,1.6.37s.65.37.81.61c.16.25.25.53.25.86v5.07c2.43-2.62,4.84-4.59,7.25-5.9s4.93-1.97,7.55-1.97c1.8,0,3.43.19,4.87.57,1.44.38,2.73.92,3.86,1.62,1.13.71,2.11,1.55,2.93,2.53.82.98,1.51,2.08,2.07,3.3,1.31-1.41,2.6-2.62,3.86-3.64,1.26-1.02,2.51-1.84,3.74-2.48s2.46-1.11,3.69-1.43c1.23-.31,2.48-.47,3.76-.47,2.92,0,5.38.49,7.38,1.48s3.62,2.32,4.84,4.01c1.23,1.69,2.11,3.66,2.63,5.93s.79,4.66.79,7.18v28.09Z"/>
    <path d="M1184.7,2279.73c0,.46-.17.82-.49,1.08-.33.26-.84.45-1.55.57-.71.11-1.75.17-3.12.17-1.48,0-2.55-.06-3.22-.17-.67-.12-1.15-.3-1.43-.57s-.42-.62-.42-1.08v-3.49c-1.8,1.93-3.86,3.44-6.17,4.52-2.31,1.08-4.88,1.62-7.7,1.62-2.33,0-4.47-.3-6.42-.91s-3.64-1.51-5.07-2.71c-1.43-1.2-2.53-2.68-3.32-4.45-.79-1.77-1.18-3.84-1.18-6.2,0-2.56.5-4.78,1.5-6.66s2.49-3.44,4.48-4.67c1.98-1.23,4.45-2.14,7.4-2.73,2.95-.59,6.38-.88,10.28-.88h4.28v-2.66c0-1.38-.14-2.58-.42-3.62-.28-1.03-.74-1.89-1.38-2.58-.64-.69-1.49-1.2-2.56-1.52-1.07-.33-2.39-.49-3.96-.49-2.07,0-3.91.23-5.53.69-1.62.46-3.06.97-4.3,1.52-1.25.56-2.29,1.07-3.12,1.53-.84.46-1.52.69-2.04.69-.36,0-.68-.11-.96-.34-.28-.23-.51-.56-.69-.98-.18-.43-.32-.95-.42-1.57-.1-.62-.15-1.31-.15-2.07,0-1.02.08-1.82.25-2.41.16-.59.47-1.12.93-1.6.46-.47,1.26-1,2.41-1.57,1.15-.57,2.49-1.11,4.03-1.6,1.54-.49,3.22-.89,5.04-1.21,1.82-.31,3.7-.47,5.63-.47,3.44,0,6.39.34,8.83,1.01,2.44.67,4.45,1.71,6.03,3.1s2.72,3.19,3.44,5.39,1.08,4.8,1.08,7.82v29.51ZM1172.55,2260.94h-4.72c-2,0-3.71.15-5.12.44-1.41.29-2.56.74-3.44,1.33-.88.59-1.53,1.3-1.94,2.14-.41.84-.62,1.79-.62,2.88,0,1.84.58,3.28,1.75,4.33s2.78,1.57,4.84,1.57c1.74,0,3.34-.44,4.8-1.33,1.46-.88,2.94-2.18,4.45-3.89v-7.48Z"/>
    <path d="M1211.6,2217.6c0,1.28-.07,2.45-.2,3.52-.13,1.07-.34,2.07-.64,3.03-.29.95-.67,1.88-1.13,2.78-.46.9-1.03,1.83-1.72,2.78l-6.59,9.44c-.23.33-.48.61-.76.84s-.61.42-1.01.57-.87.25-1.43.32c-.56.07-1.26.1-2.12.1-.95,0-1.72-.03-2.31-.1-.59-.07-1.02-.18-1.28-.34-.26-.16-.4-.39-.42-.66-.02-.28.06-.6.22-.96l6-13.58v-7.72c0-1.11.13-2.02.39-2.71.26-.69.67-1.22,1.23-1.6s1.26-.62,2.12-.74c.85-.12,1.88-.17,3.1-.17,1.15,0,2.13.06,2.95.17.82.12,1.5.36,2.04.74s.93.91,1.18,1.6.37,1.59.37,2.71Z"/>
    <path d="M1254.2,2279.73c0,.46-.17.82-.49,1.08-.33.26-.84.45-1.55.57-.71.11-1.75.17-3.12.17-1.48,0-2.55-.06-3.22-.17-.67-.12-1.15-.3-1.43-.57s-.42-.62-.42-1.08v-3.49c-1.8,1.93-3.86,3.44-6.17,4.52-2.31,1.08-4.88,1.62-7.7,1.62-2.33,0-4.47-.3-6.42-.91s-3.64-1.51-5.07-2.71c-1.43-1.2-2.53-2.68-3.32-4.45-.79-1.77-1.18-3.84-1.18-6.2,0-2.56.5-4.78,1.5-6.66s2.49-3.44,4.48-4.67c1.98-1.23,4.45-2.14,7.4-2.73,2.95-.59,6.38-.88,10.28-.88h4.28v-2.66c0-1.38-.14-2.58-.42-3.62-.28-1.03-.74-1.89-1.38-2.58-.64-.69-1.49-1.2-2.56-1.52-1.07-.33-2.39-.49-3.96-.49-2.07,0-3.91.23-5.53.69-1.62.46-3.06.97-4.3,1.52-1.25.56-2.29,1.07-3.12,1.53-.84.46-1.52.69-2.04.69-.36,0-.68-.11-.96-.34-.28-.23-.51-.56-.69-.98-.18-.43-.32-.95-.42-1.57-.1-.62-.15-1.31-.15-2.07,0-1.02.08-1.82.25-2.41.16-.59.47-1.12.93-1.6.46-.47,1.26-1,2.41-1.57,1.15-.57,2.49-1.11,4.03-1.6,1.54-.49,3.22-.89,5.04-1.21,1.82-.31,3.7-.47,5.63-.47,3.44,0,6.39.34,8.83,1.01,2.44.67,4.45,1.71,6.03,3.1s2.72,3.19,3.44,5.39,1.08,4.8,1.08,7.82v29.51ZM1242.05,2260.94h-4.72c-2,0-3.71.15-5.12.44-1.41.29-2.56.74-3.44,1.33-.88.59-1.53,1.3-1.94,2.14-.41.84-.62,1.79-.62,2.88,0,1.84.58,3.28,1.75,4.33s2.78,1.57,4.84,1.57c1.74,0,3.34-.44,4.8-1.33,1.46-.88,2.94-2.18,4.45-3.89v-7.48Z"/>
    <path d="M1291.58,2275.25c0,1.44-.09,2.55-.27,3.32-.18.77-.42,1.31-.71,1.62-.29.31-.73.59-1.3.84-.57.25-1.25.46-2.02.64-.77.18-1.61.32-2.51.42-.9.1-1.81.15-2.73.15-2.46,0-4.59-.31-6.39-.93-1.8-.62-3.3-1.58-4.48-2.88-1.18-1.29-2.05-2.93-2.61-4.89-.56-1.97-.84-4.29-.84-6.98v-22.48h-5.26c-.62,0-1.1-.38-1.43-1.16-.33-.77-.49-2.06-.49-3.86,0-.95.04-1.75.12-2.41.08-.66.21-1.17.37-1.55.16-.38.37-.65.62-.81.25-.16.53-.25.86-.25h5.21v-9.79c0-.33.09-.62.27-.88.18-.26.51-.48.98-.66.48-.18,1.11-.31,1.92-.39.8-.08,1.79-.12,2.98-.12s2.22.04,3.02.12c.8.08,1.43.21,1.89.39.46.18.79.4.98.66.2.26.29.56.29.88v9.79h9.54c.33,0,.61.08.86.25.25.17.45.44.62.81.16.38.29.89.37,1.55.08.66.12,1.46.12,2.41,0,1.8-.17,3.09-.49,3.86-.33.77-.8,1.16-1.43,1.16h-9.59v20.61c0,2.39.38,4.19,1.13,5.39.75,1.2,2.1,1.79,4.03,1.79.66,0,1.25-.06,1.77-.17.52-.11.99-.25,1.4-.39.41-.15.75-.28,1.03-.39.28-.11.53-.17.76-.17.2,0,.39.06.57.17.18.12.32.34.42.69.1.34.19.81.27,1.4.08.59.12,1.35.12,2.26Z"/>
    <path d="M484.17,2400.36c0,.33-.09.62-.27.88-.18.26-.51.48-.98.64-.48.17-1.11.29-1.89.39s-1.79.15-3,.15-2.16-.05-2.95-.15c-.79-.1-1.41-.23-1.87-.39-.46-.16-.79-.38-.98-.64-.2-.26-.29-.56-.29-.88v-51.79h-.1l-18.44,51.74c-.13.43-.34.78-.64,1.06-.3.28-.7.5-1.21.66-.51.16-1.16.27-1.94.32-.79.05-1.74.07-2.85.07s-2.07-.04-2.85-.12-1.44-.21-1.94-.39c-.51-.18-.91-.4-1.21-.66-.29-.26-.49-.57-.59-.93l-17.81-51.74h-.1v51.79c0,.33-.09.62-.27.88-.18.26-.52.48-1.01.64-.49.17-1.12.29-1.89.39s-1.76.15-2.98.15-2.16-.05-2.95-.15-1.42-.23-1.89-.39c-.48-.16-.8-.38-.98-.64-.18-.26-.27-.56-.27-.88v-56.71c0-1.67.44-2.95,1.33-3.84s2.07-1.33,3.54-1.33h8.46c1.51,0,2.8.12,3.89.37s2.02.66,2.8,1.23c.79.57,1.44,1.33,1.97,2.26.52.93.98,2.09,1.38,3.47l13.77,37.92h.2l14.26-37.82c.43-1.38.89-2.54,1.4-3.49.51-.95,1.1-1.72,1.77-2.31.67-.59,1.47-1.01,2.39-1.25s1.98-.37,3.2-.37h8.71c.89,0,1.65.12,2.29.34.64.23,1.16.57,1.57,1.01.41.44.72.98.93,1.62.21.64.32,1.37.32,2.19v56.71Z"/>
    <path d="M541.47,2377.93c0,3.9-.43,7.41-1.28,10.53-.85,3.12-2.08,5.77-3.69,7.97-1.61,2.2-3.58,3.88-5.93,5.07-2.34,1.18-5.01,1.77-7.99,1.77-1.48,0-2.85-.14-4.13-.42s-2.5-.73-3.66-1.35c-1.16-.62-2.31-1.41-3.44-2.36-1.13-.95-2.29-2.1-3.47-3.44v4.77c0,.36-.09.66-.27.91-.18.25-.48.45-.89.62-.41.16-.96.28-1.65.34s-1.52.1-2.51.1-1.86-.03-2.53-.1c-.67-.07-1.21-.18-1.62-.34-.41-.16-.7-.37-.86-.62-.16-.25-.25-.55-.25-.91v-64.68c0-.33.1-.62.3-.89.2-.26.53-.48,1.01-.66.47-.18,1.11-.32,1.89-.42.79-.1,1.79-.15,3-.15s2.21.05,3,.15c.79.1,1.42.24,1.89.42.48.18.81.4,1.01.66.2.26.29.56.29.89v24.25c1.11-1.11,2.23-2.07,3.34-2.85,1.11-.79,2.23-1.43,3.34-1.94,1.11-.51,2.26-.88,3.44-1.11,1.18-.23,2.43-.34,3.74-.34,3.25,0,6,.65,8.26,1.94,2.26,1.3,4.11,3.04,5.53,5.24,1.43,2.2,2.47,4.76,3.12,7.7.66,2.93.98,6.03.98,9.27ZM528.63,2378.81c0-1.87-.14-3.67-.42-5.41-.28-1.74-.76-3.28-1.45-4.62s-1.58-2.42-2.68-3.22c-1.1-.8-2.48-1.21-4.16-1.21-.82,0-1.62.12-2.41.34-.79.23-1.6.62-2.43,1.18-.84.56-1.7,1.28-2.58,2.16-.89.89-1.82,1.98-2.8,3.3v14.56c1.74,2.23,3.4,3.93,4.99,5.09,1.59,1.16,3.25,1.75,4.99,1.75,1.61,0,2.97-.41,4.08-1.23,1.11-.82,2.04-1.89,2.78-3.2.74-1.31,1.27-2.8,1.6-4.48.33-1.67.49-3.34.49-5.02Z"/>
    <path d="M588.74,2400.6c0,.46-.16.82-.49,1.08-.33.26-.84.45-1.55.57-.71.11-1.75.17-3.12.17-1.48,0-2.55-.06-3.22-.17-.67-.12-1.15-.3-1.43-.57-.28-.26-.42-.62-.42-1.08v-3.49c-1.8,1.93-3.86,3.44-6.17,4.52-2.31,1.08-4.88,1.62-7.7,1.62-2.33,0-4.47-.3-6.42-.91-1.95-.61-3.64-1.51-5.07-2.71s-2.53-2.68-3.32-4.45c-.79-1.77-1.18-3.84-1.18-6.2,0-2.56.5-4.78,1.5-6.66,1-1.89,2.49-3.44,4.48-4.67,1.98-1.23,4.45-2.14,7.4-2.73,2.95-.59,6.38-.88,10.28-.88h4.28v-2.66c0-1.38-.14-2.58-.42-3.62-.28-1.03-.74-1.89-1.38-2.58-.64-.69-1.49-1.2-2.56-1.52-1.07-.33-2.39-.49-3.96-.49-2.07,0-3.91.23-5.53.69-1.62.46-3.06.97-4.3,1.52-1.25.56-2.29,1.07-3.12,1.53-.84.46-1.52.69-2.04.69-.36,0-.68-.11-.96-.34-.28-.23-.51-.56-.69-.98-.18-.43-.32-.95-.42-1.57-.1-.62-.15-1.31-.15-2.07,0-1.02.08-1.82.25-2.41.16-.59.47-1.12.93-1.6.46-.47,1.26-1,2.41-1.57,1.15-.57,2.49-1.11,4.03-1.6,1.54-.49,3.22-.89,5.04-1.21,1.82-.31,3.7-.47,5.63-.47,3.44,0,6.39.34,8.83,1.01,2.44.67,4.45,1.71,6.03,3.1,1.57,1.39,2.72,3.19,3.44,5.39.72,2.2,1.08,4.8,1.08,7.82v29.51ZM576.59,2381.82h-4.72c-2,0-3.71.15-5.12.44-1.41.29-2.56.74-3.44,1.33s-1.53,1.3-1.94,2.14c-.41.84-.61,1.79-.61,2.88,0,1.84.58,3.28,1.75,4.33,1.16,1.05,2.78,1.57,4.84,1.57,1.74,0,3.34-.44,4.8-1.33,1.46-.88,2.94-2.18,4.45-3.89v-7.48Z"/>
    <path d="M613.48,2400.46c0,.33-.1.61-.29.86-.2.25-.53.45-1.01.62-.48.16-1.11.29-1.89.37-.79.08-1.79.12-3,.12s-2.21-.04-3-.12-1.42-.2-1.89-.37c-.48-.16-.81-.37-1.01-.62s-.3-.53-.3-.86v-64.68c0-.33.1-.62.3-.89.2-.26.53-.48,1.01-.66.47-.18,1.11-.32,1.89-.42.79-.1,1.79-.15,3-.15s2.21.05,3,.15c.79.1,1.42.24,1.89.42.48.18.81.4,1.01.66.2.26.29.56.29.89v64.68Z"/>
    <path d="M666.36,2377.24c0,1.51-.34,2.62-1.01,3.34-.67.72-1.6,1.08-2.78,1.08h-26.71c0,1.87.22,3.57.66,5.09.44,1.52,1.15,2.82,2.11,3.88.97,1.07,2.21,1.88,3.74,2.44s3.35.84,5.48.84,4.07-.16,5.71-.47c1.64-.31,3.06-.66,4.25-1.03,1.2-.38,2.19-.72,2.98-1.03s1.43-.47,1.92-.47c.29,0,.54.06.74.17.2.12.36.32.49.61.13.3.22.71.27,1.25s.07,1.22.07,2.04c0,.72-.02,1.34-.05,1.84s-.08.94-.15,1.3c-.07.36-.16.66-.29.91-.13.25-.3.48-.52.71-.21.23-.8.54-1.75.93-.95.39-2.16.78-3.64,1.16s-3.17.71-5.07.98c-1.9.28-3.93.42-6.1.42-3.9,0-7.32-.49-10.26-1.48-2.94-.98-5.39-2.47-7.35-4.48-1.97-2-3.44-4.53-4.4-7.57-.97-3.05-1.45-6.62-1.45-10.72s.51-7.42,1.52-10.55c1.02-3.13,2.49-5.79,4.43-7.97,1.93-2.18,4.29-3.84,7.06-4.99,2.77-1.15,5.89-1.72,9.37-1.72,3.67,0,6.81.54,9.42,1.62s4.75,2.58,6.42,4.5c1.67,1.92,2.9,4.19,3.69,6.81.79,2.62,1.18,5.48,1.18,8.56v1.97ZM654.35,2373.7c.1-3.47-.6-6.21-2.09-8.19-1.49-1.98-3.8-2.98-6.91-2.98-1.57,0-2.94.29-4.11.89-1.16.59-2.13,1.39-2.9,2.39-.77,1-1.36,2.18-1.77,3.54-.41,1.36-.65,2.81-.71,4.35h18.49Z"/>
    <path d="M691.1,2393.08c0,1.31-.07,2.5-.2,3.57-.13,1.07-.34,2.07-.64,3.03-.3.95-.67,1.88-1.13,2.78-.46.9-1.03,1.83-1.72,2.78l-6.59,9.44c-.23.33-.48.61-.76.84-.28.23-.61.41-1.01.54-.39.13-.87.24-1.43.32-.56.08-1.26.12-2.11.12-.95,0-1.72-.04-2.31-.12-.59-.08-1.02-.21-1.28-.37-.26-.16-.4-.38-.42-.64-.02-.26.06-.57.22-.93l6-13.58v-7.77c0-1.12.13-2.02.39-2.71.26-.69.67-1.21,1.23-1.57.56-.36,1.26-.6,2.12-.71.85-.11,1.88-.17,3.1-.17,1.15,0,2.13.06,2.95.17.82.12,1.5.35,2.04.71.54.36.93.88,1.18,1.57.25.69.37,1.59.37,2.71Z"/>
    <path d="M777.96,2378.42c0,3.9-.57,7.4-1.72,10.48-1.15,3.08-2.84,5.69-5.07,7.82-2.23,2.13-4.98,3.75-8.26,4.87s-7.05,1.67-11.31,1.67c-4,0-7.59-.5-10.77-1.5-3.18-1-5.87-2.52-8.07-4.55-2.2-2.03-3.88-4.57-5.04-7.6s-1.75-6.58-1.75-10.65v-38.71c0-.33.1-.62.29-.88.2-.26.55-.48,1.06-.64s1.17-.29,1.99-.39c.82-.1,1.87-.15,3.15-.15s2.28.05,3.1.15c.82.1,1.48.23,1.97.39.49.16.84.38,1.06.64.21.26.32.56.32.88v37.58c0,2.53.31,4.71.93,6.57.62,1.85,1.52,3.39,2.68,4.6,1.16,1.21,2.56,2.12,4.18,2.73s3.43.91,5.43.91,3.85-.31,5.46-.93c1.61-.62,2.97-1.53,4.08-2.73,1.11-1.2,1.98-2.67,2.58-4.43.61-1.75.91-3.75.91-5.98v-38.32c0-.33.1-.62.29-.88.2-.26.54-.48,1.03-.64s1.16-.29,1.99-.39,1.88-.15,3.12-.15,2.27.05,3.07.15c.8.1,1.45.23,1.94.39.49.16.84.38,1.03.64.2.26.29.56.29.88v38.17Z"/>
    <path d="M830.59,2359.63c0,1.57-.18,2.74-.54,3.49-.36.75-.8,1.13-1.33,1.13h-5.17c.72.79,1.24,1.68,1.55,2.68.31,1,.47,2.04.47,3.12,0,2.56-.43,4.83-1.28,6.81-.85,1.98-2.07,3.66-3.67,5.02-1.59,1.36-3.51,2.39-5.75,3.1-2.25.71-4.75,1.06-7.5,1.06-1.41,0-2.75-.17-4.03-.52-1.28-.34-2.26-.75-2.95-1.21-.39.43-.75.93-1.06,1.53-.31.59-.47,1.25-.47,1.97,0,.95.42,1.73,1.25,2.34.84.61,2.01.94,3.52,1.01l10.67.39c2.49.1,4.71.45,6.67,1.06,1.95.61,3.59,1.46,4.92,2.56,1.33,1.1,2.34,2.42,3.05,3.96s1.06,3.29,1.06,5.26c0,2.16-.48,4.21-1.43,6.12-.95,1.92-2.38,3.58-4.28,4.99-1.9,1.41-4.29,2.52-7.16,3.34-2.87.82-6.22,1.23-10.06,1.23s-6.93-.3-9.57-.89-4.8-1.41-6.49-2.46c-1.69-1.05-2.92-2.3-3.69-3.76-.77-1.46-1.16-3.06-1.16-4.8,0-1.08.14-2.12.42-3.1.28-.98.69-1.93,1.23-2.83s1.21-1.76,1.99-2.58,1.69-1.61,2.71-2.36c-1.41-.75-2.5-1.78-3.27-3.07-.77-1.29-1.16-2.71-1.16-4.25,0-1.93.44-3.7,1.33-5.29.89-1.59,2.03-3.02,3.44-4.3-1.15-1.15-2.07-2.52-2.75-4.13-.69-1.61-1.03-3.61-1.03-6,0-2.56.45-4.84,1.35-6.86.9-2.02,2.16-3.72,3.76-5.12,1.61-1.39,3.52-2.46,5.75-3.2,2.23-.74,4.69-1.11,7.38-1.11,1.38,0,2.7.08,3.96.25,1.26.17,2.43.39,3.52.69h13.92c.56,0,1.01.36,1.35,1.08.34.72.52,1.94.52,3.64ZM817.6,2405.03c0-1.48-.59-2.61-1.77-3.39s-2.8-1.21-4.87-1.28l-8.8-.25c-.85.62-1.53,1.22-2.04,1.79-.51.57-.92,1.12-1.23,1.65-.31.52-.52,1.03-.62,1.52s-.15,1-.15,1.52c0,1.64.83,2.89,2.48,3.74s3.99,1.28,7.01,1.28c1.87,0,3.44-.19,4.72-.57,1.28-.38,2.31-.88,3.1-1.5s1.34-1.32,1.67-2.09c.33-.77.49-1.58.49-2.43ZM814.7,2370.01c0-2.36-.66-4.2-1.97-5.51-1.31-1.31-3.17-1.97-5.56-1.97-1.21,0-2.28.21-3.2.62s-1.68.97-2.29,1.67c-.61.71-1.06,1.53-1.35,2.46-.29.93-.44,1.91-.44,2.93,0,2.23.66,3.99,1.97,5.29,1.31,1.3,3.13,1.94,5.46,1.94,1.25,0,2.33-.2,3.25-.59.92-.39,1.68-.93,2.29-1.62.61-.69,1.06-1.48,1.38-2.39.31-.9.47-1.84.47-2.83Z"/>
    <path d="M874.46,2400.6c0,.46-.17.82-.49,1.08-.33.26-.84.45-1.55.57-.71.11-1.75.17-3.12.17-1.48,0-2.55-.06-3.22-.17-.67-.12-1.15-.3-1.43-.57s-.42-.62-.42-1.08v-3.49c-1.8,1.93-3.86,3.44-6.17,4.52-2.31,1.08-4.88,1.62-7.7,1.62-2.33,0-4.47-.3-6.42-.91s-3.64-1.51-5.07-2.71c-1.43-1.2-2.53-2.68-3.32-4.45-.79-1.77-1.18-3.84-1.18-6.2,0-2.56.5-4.78,1.5-6.66s2.49-3.44,4.48-4.67c1.98-1.23,4.45-2.14,7.4-2.73,2.95-.59,6.38-.88,10.28-.88h4.28v-2.66c0-1.38-.14-2.58-.42-3.62-.28-1.03-.74-1.89-1.38-2.58-.64-.69-1.49-1.2-2.56-1.52-1.07-.33-2.39-.49-3.96-.49-2.07,0-3.91.23-5.53.69-1.62.46-3.06.97-4.3,1.52-1.25.56-2.29,1.07-3.12,1.53-.84.46-1.52.69-2.04.69-.36,0-.68-.11-.96-.34-.28-.23-.51-.56-.69-.98-.18-.43-.32-.95-.42-1.57-.1-.62-.15-1.31-.15-2.07,0-1.02.08-1.82.25-2.41.16-.59.47-1.12.93-1.6.46-.47,1.26-1,2.41-1.57,1.15-.57,2.49-1.11,4.03-1.6,1.54-.49,3.22-.89,5.04-1.21,1.82-.31,3.7-.47,5.63-.47,3.44,0,6.39.34,8.83,1.01,2.44.67,4.45,1.71,6.03,3.1s2.72,3.19,3.44,5.39,1.08,4.8,1.08,7.82v29.51ZM862.31,2381.82h-4.72c-2,0-3.71.15-5.12.44-1.41.29-2.56.74-3.44,1.33-.88.59-1.53,1.3-1.94,2.14-.41.84-.62,1.79-.62,2.88,0,1.84.58,3.28,1.75,4.33s2.78,1.57,4.84,1.57c1.74,0,3.34-.44,4.8-1.33,1.46-.88,2.94-2.18,4.45-3.89v-7.48Z"/>
    <path d="M928.71,2400.46c0,.33-.1.61-.29.86s-.52.45-.98.62c-.46.16-1.09.29-1.89.37-.8.08-1.8.12-2.98.12s-2.22-.04-3.02-.12c-.8-.08-1.43-.2-1.89-.37-.46-.16-.79-.37-.98-.62-.2-.25-.29-.53-.29-.86v-25.04c0-2.13-.16-3.8-.47-5.02-.31-1.21-.76-2.25-1.35-3.12-.59-.87-1.35-1.54-2.29-2.02-.93-.47-2.03-.71-3.27-.71-1.57,0-3.16.57-4.77,1.72-1.61,1.15-3.28,2.82-5.02,5.02v29.17c0,.33-.1.61-.29.86-.2.25-.53.45-1.01.62-.48.16-1.11.29-1.89.37s-1.79.12-3,.12-2.21-.04-3-.12-1.42-.2-1.89-.37c-.48-.16-.81-.37-1.01-.62-.2-.25-.29-.53-.29-.86v-43.87c0-.33.08-.62.25-.86.16-.25.46-.45.89-.61.43-.16.97-.29,1.65-.37.67-.08,1.52-.12,2.53-.12s1.92.04,2.61.12c.69.08,1.22.21,1.6.37s.65.37.81.61c.16.25.25.53.25.86v5.07c2.43-2.62,4.89-4.59,7.4-5.9s5.12-1.97,7.84-1.97c2.98,0,5.5.49,7.55,1.48,2.05.98,3.71,2.32,4.97,4.01,1.26,1.69,2.17,3.66,2.73,5.93s.84,4.98.84,8.17v27.1Z"/>
    <path d="M982.47,2400.46c0,.36-.08.66-.25.91s-.44.45-.84.62-.93.28-1.6.34c-.67.07-1.5.1-2.48.1-1.05,0-1.9-.03-2.56-.1-.66-.07-1.19-.18-1.6-.34-.41-.16-.71-.37-.89-.62-.18-.25-.27-.55-.27-.91v-4.87c-2.26,2.43-4.63,4.31-7.11,5.66-2.48,1.34-5.22,2.02-8.24,2.02-3.34,0-6.17-.65-8.48-1.94-2.31-1.29-4.2-3.04-5.66-5.24-1.46-2.2-2.52-4.76-3.17-7.7-.66-2.93-.98-6.03-.98-9.27,0-3.9.42-7.41,1.25-10.53.84-3.11,2.06-5.77,3.66-7.97,1.61-2.2,3.61-3.89,6-5.07,2.39-1.18,5.15-1.77,8.26-1.77,2.46,0,4.69.5,6.69,1.5,2,1,3.98,2.47,5.95,4.4v-23.76c0-.33.09-.62.27-.89.18-.26.51-.48.98-.66.47-.18,1.11-.32,1.89-.42.79-.1,1.79-.15,3-.15s2.21.05,3,.15c.79.1,1.41.24,1.87.42.46.18.79.4.98.66.2.26.29.56.29.89v64.53ZM970.18,2371.14c-1.77-2.23-3.47-3.93-5.09-5.12-1.62-1.18-3.32-1.77-5.09-1.77-1.61,0-2.99.4-4.16,1.21-1.17.8-2.1,1.88-2.8,3.22-.71,1.34-1.23,2.84-1.57,4.5-.34,1.66-.52,3.35-.52,5.09,0,1.84.15,3.62.44,5.36.29,1.74.78,3.29,1.45,4.65.67,1.36,1.57,2.45,2.68,3.27,1.11.82,2.53,1.23,4.23,1.23.85,0,1.68-.12,2.48-.37.8-.25,1.62-.65,2.46-1.21.84-.56,1.7-1.29,2.58-2.19.88-.9,1.85-2.01,2.9-3.32v-14.56Z"/>
    <path d="M1032.3,2400.6c0,.46-.17.82-.49,1.08-.33.26-.84.45-1.55.57-.71.11-1.75.17-3.12.17-1.48,0-2.55-.06-3.22-.17-.67-.12-1.15-.3-1.43-.57s-.42-.62-.42-1.08v-3.49c-1.8,1.93-3.86,3.44-6.17,4.52-2.31,1.08-4.88,1.62-7.7,1.62-2.33,0-4.47-.3-6.42-.91s-3.64-1.51-5.07-2.71c-1.43-1.2-2.53-2.68-3.32-4.45-.79-1.77-1.18-3.84-1.18-6.2,0-2.56.5-4.78,1.5-6.66s2.49-3.44,4.48-4.67c1.98-1.23,4.45-2.14,7.4-2.73,2.95-.59,6.38-.88,10.28-.88h4.28v-2.66c0-1.38-.14-2.58-.42-3.62-.28-1.03-.74-1.89-1.38-2.58-.64-.69-1.49-1.2-2.56-1.52-1.07-.33-2.39-.49-3.96-.49-2.07,0-3.91.23-5.53.69-1.62.46-3.06.97-4.3,1.52-1.25.56-2.29,1.07-3.12,1.53-.84.46-1.52.69-2.04.69-.36,0-.68-.11-.96-.34-.28-.23-.51-.56-.69-.98-.18-.43-.32-.95-.42-1.57-.1-.62-.15-1.31-.15-2.07,0-1.02.08-1.82.25-2.41.16-.59.47-1.12.93-1.6.46-.47,1.26-1,2.41-1.57,1.15-.57,2.49-1.11,4.03-1.6,1.54-.49,3.22-.89,5.04-1.21,1.82-.31,3.7-.47,5.63-.47,3.44,0,6.39.34,8.83,1.01,2.44.67,4.45,1.71,6.03,3.1s2.72,3.19,3.44,5.39,1.08,4.8,1.08,7.82v29.51ZM1020.15,2381.82h-4.72c-2,0-3.71.15-5.12.44-1.41.29-2.56.74-3.44,1.33-.88.59-1.53,1.3-1.94,2.14-.41.84-.62,1.79-.62,2.88,0,1.84.58,3.28,1.75,4.33s2.78,1.57,4.84,1.57c1.74,0,3.34-.44,4.8-1.33,1.46-.88,2.94-2.18,4.45-3.89v-7.48Z"/>
  </g>
  <g>
    <path d="M503.92,1900.56c0,5.28-.68,9.89-2.03,13.83-1.35,3.94-3.32,7.21-5.91,9.8-2.59,2.59-5.77,4.53-9.54,5.82-3.77,1.29-8.26,1.93-13.47,1.93h-12.91c-.72,0-1.41-.24-2.05-.73-.64-.49-.97-1.34-.97-2.57v-54.37c0-1.23.32-2.08.97-2.57.64-.49,1.33-.73,2.05-.73h13.8c5.28,0,9.74.68,13.38,2.05s6.7,3.33,9.16,5.89c2.47,2.56,4.33,5.66,5.61,9.3s1.91,7.76,1.91,12.34ZM495.39,1900.89c0-3.3-.41-6.37-1.23-9.21-.82-2.84-2.1-5.3-3.84-7.37-1.74-2.07-3.95-3.69-6.62-4.85-2.67-1.16-6.11-1.74-10.32-1.74h-8.24v47.44h8.34c3.89,0,7.18-.49,9.85-1.46,2.67-.97,4.9-2.46,6.69-4.48,1.79-2.01,3.13-4.53,4.03-7.56.9-3.03,1.34-6.62,1.34-10.77Z"/>
    <path d="M551.69,1907.72c0,1.22-.31,2.1-.92,2.61-.62.52-1.32.78-2.11.78h-27.92c0,2.36.24,4.48.71,6.36s1.26,3.5,2.37,4.85c1.1,1.35,2.54,2.39,4.31,3.11,1.77.72,3.93,1.08,6.49,1.08,2.02,0,3.82-.17,5.4-.5,1.58-.33,2.94-.7,4.1-1.11s2.1-.78,2.84-1.11,1.3-.5,1.68-.5c.22,0,.42.06.59.17.17.11.31.28.4.5.09.22.17.53.21.92.05.39.07.87.07,1.44,0,.41-.02.76-.05,1.06-.03.3-.07.57-.12.8-.05.24-.13.45-.24.64-.11.19-.25.37-.42.54-.17.17-.68.46-1.53.85-.85.39-1.95.78-3.3,1.15-1.35.38-2.91.71-4.69,1.01s-3.67.45-5.68.45c-3.49,0-6.54-.49-9.16-1.46-2.62-.97-4.83-2.42-6.62-4.33-1.79-1.92-3.14-4.32-4.05-7.21-.91-2.89-1.37-6.25-1.37-10.08s.47-6.92,1.41-9.82c.94-2.9,2.3-5.37,4.08-7.4,1.77-2.03,3.92-3.58,6.43-4.66,2.51-1.08,5.32-1.62,8.43-1.62,3.33,0,6.16.53,8.5,1.6,2.34,1.07,4.26,2.5,5.77,4.31,1.51,1.81,2.61,3.93,3.32,6.36.71,2.43,1.06,5.03,1.06,7.8v1.41ZM543.87,1905.41c.09-4.08-.81-7.29-2.73-9.61-1.91-2.32-4.75-3.49-8.51-3.49-1.93,0-3.62.36-5.07,1.08-1.45.72-2.67,1.68-3.65,2.87-.98,1.19-1.74,2.58-2.28,4.17-.54,1.59-.84,3.24-.9,4.97h23.13Z"/>
    <path d="M597.81,1888.26c0,.13,0,.26-.02.4-.02.14-.04.29-.07.45-.03.16-.07.33-.12.52-.05.19-.1.39-.17.61l-14.46,40.28c-.13.35-.29.63-.49.85-.2.22-.51.39-.92.52-.41.12-.93.21-1.55.26-.63.05-1.41.07-2.36.07s-1.73-.03-2.36-.09c-.63-.06-1.14-.16-1.53-.28-.39-.13-.7-.3-.92-.52-.22-.22-.39-.49-.52-.8l-14.42-40.28c-.13-.38-.23-.71-.31-.99-.08-.28-.13-.49-.14-.64-.02-.14-.02-.26-.02-.35,0-.25.06-.47.19-.66.12-.19.34-.34.64-.45.3-.11.69-.18,1.18-.21.49-.03,1.09-.05,1.81-.05.91,0,1.64.02,2.19.07.55.05.97.13,1.27.26.3.13.52.28.66.47.14.19.27.42.4.71l11.97,34.96.19.57.14-.57,11.83-34.96c.06-.28.17-.52.33-.71.16-.19.38-.34.68-.47.3-.12.71-.21,1.23-.26.52-.05,1.2-.07,2.05-.07.72,0,1.32.02,1.79.05.47.03.84.11,1.11.24.27.13.46.28.57.45.11.17.16.38.16.64Z"/>
    <path d="M641.86,1907.72c0,1.22-.31,2.1-.92,2.61-.62.52-1.32.78-2.11.78h-27.92c0,2.36.24,4.48.71,6.36s1.26,3.5,2.37,4.85c1.1,1.35,2.54,2.39,4.31,3.11,1.77.72,3.93,1.08,6.49,1.08,2.02,0,3.82-.17,5.4-.5,1.58-.33,2.94-.7,4.1-1.11s2.1-.78,2.84-1.11,1.3-.5,1.68-.5c.22,0,.42.06.59.17.17.11.31.28.4.5.09.22.17.53.21.92.05.39.07.87.07,1.44,0,.41-.02.76-.05,1.06-.03.3-.07.57-.12.8-.05.24-.13.45-.24.64-.11.19-.25.37-.42.54-.17.17-.68.46-1.53.85-.85.39-1.95.78-3.3,1.15-1.35.38-2.91.71-4.69,1.01s-3.67.45-5.68.45c-3.49,0-6.54-.49-9.16-1.46-2.62-.97-4.83-2.42-6.62-4.33-1.79-1.92-3.14-4.32-4.05-7.21-.91-2.89-1.37-6.25-1.37-10.08s.47-6.92,1.41-9.82c.94-2.9,2.3-5.37,4.08-7.4,1.77-2.03,3.92-3.58,6.43-4.66,2.51-1.08,5.32-1.62,8.43-1.62,3.33,0,6.16.53,8.5,1.6,2.34,1.07,4.26,2.5,5.77,4.31,1.51,1.81,2.61,3.93,3.32,6.36.71,2.43,1.06,5.03,1.06,7.8v1.41ZM634.04,1905.41c.09-4.08-.81-7.29-2.73-9.61-1.91-2.32-4.75-3.49-8.51-3.49-1.93,0-3.62.36-5.07,1.08-1.45.72-2.67,1.68-3.65,2.87-.98,1.19-1.74,2.58-2.28,4.17-.54,1.59-.84,3.24-.9,4.97h23.13Z"/>
    <path d="M661.46,1930.76c0,.25-.06.46-.19.64-.13.17-.33.32-.61.45-.28.12-.68.22-1.18.28-.5.06-1.15.09-1.93.09s-1.38-.03-1.88-.09c-.5-.06-.9-.16-1.2-.28-.3-.13-.5-.28-.61-.45-.11-.17-.16-.38-.16-.64v-62.94c0-.25.05-.47.16-.66.11-.19.31-.35.61-.47.3-.12.7-.22,1.2-.28.5-.06,1.13-.09,1.88-.09s1.43.03,1.93.09c.5.06.9.16,1.18.28.28.13.49.28.61.47.12.19.19.41.19.66v62.94Z"/>
    <path d="M715.27,1909.09c0,3.46-.46,6.64-1.37,9.54-.91,2.91-2.27,5.41-4.08,7.51-1.81,2.1-4.07,3.75-6.78,4.92-2.72,1.18-5.87,1.77-9.45,1.77s-6.52-.52-9.12-1.55c-2.59-1.04-4.75-2.54-6.48-4.52-1.73-1.98-3.02-4.38-3.86-7.21s-1.27-6.03-1.27-9.61.45-6.63,1.34-9.54,2.25-5.41,4.05-7.51c1.81-2.1,4.06-3.74,6.76-4.9,2.7-1.16,5.86-1.74,9.47-1.74s6.52.52,9.12,1.55c2.59,1.04,4.75,2.54,6.48,4.52,1.73,1.98,3.02,4.38,3.89,7.21.86,2.83,1.3,6.02,1.3,9.56ZM707.21,1909.6c0-2.29-.21-4.46-.64-6.5-.43-2.04-1.13-3.83-2.12-5.37-.98-1.54-2.31-2.76-3.99-3.65-1.68-.89-3.77-1.34-6.27-1.34-2.31,0-4.3.41-5.97,1.23s-3.03,1.97-4.11,3.46c-1.08,1.49-1.88,3.26-2.4,5.3-.52,2.04-.78,4.27-.78,6.69s.21,4.51.64,6.55c.43,2.04,1.14,3.82,2.14,5.35s2.34,2.73,4.02,3.63c1.68.89,3.77,1.34,6.28,1.34,2.28,0,4.26-.41,5.94-1.23,1.68-.82,3.06-1.96,4.14-3.44s1.87-3.24,2.38-5.28c.51-2.04.76-4.29.76-6.74Z"/>
    <path d="M765.72,1908.9c0,3.71-.4,7.04-1.2,9.99-.8,2.95-1.98,5.46-3.53,7.51-1.55,2.06-3.48,3.64-5.77,4.76-2.29,1.11-4.92,1.67-7.87,1.67-1.26,0-2.42-.13-3.49-.38-1.07-.25-2.11-.64-3.13-1.18-1.02-.53-2.03-1.21-3.04-2.03-1-.82-2.07-1.77-3.2-2.87v21.2c0,.25-.06.47-.19.66-.13.19-.33.35-.61.47-.28.12-.68.22-1.18.28-.5.06-1.15.09-1.93.09s-1.38-.03-1.88-.09c-.5-.06-.9-.16-1.2-.28-.3-.13-.5-.28-.61-.47s-.16-.41-.16-.66v-59.22c0-.28.05-.51.14-.68.09-.17.28-.32.57-.45.28-.12.64-.21,1.08-.26.44-.05.97-.07,1.6-.07.66,0,1.2.02,1.63.07.42.05.78.13,1.06.26.28.13.48.28.59.45.11.17.17.4.17.68v5.7c1.29-1.32,2.53-2.46,3.72-3.44,1.19-.97,2.39-1.78,3.6-2.43,1.21-.64,2.45-1.13,3.72-1.46,1.27-.33,2.61-.49,4.03-.49,3.08,0,5.7.6,7.87,1.79,2.17,1.19,3.93,2.83,5.3,4.9s2.36,4.48,2.99,7.23c.63,2.75.94,5.66.94,8.74ZM757.67,1909.79c0-2.17-.17-4.26-.5-6.29-.33-2.03-.9-3.82-1.71-5.39-.81-1.57-1.89-2.83-3.25-3.77-1.36-.94-3.05-1.41-5.07-1.41-1.01,0-2.01.15-2.99.45-.98.3-1.98.77-2.99,1.41-1.01.64-2.07,1.49-3.17,2.54-1.11,1.05-2.28,2.35-3.51,3.89v16.87c2.15,2.61,4.19,4.6,6.11,5.98,1.93,1.38,3.95,2.07,6.07,2.07,1.96,0,3.64-.47,5.05-1.41s2.54-2.2,3.41-3.77c.87-1.57,1.51-3.33,1.92-5.28.41-1.95.62-3.91.62-5.89Z"/>
    <path d="M813.59,1907.72c0,1.22-.31,2.1-.92,2.61-.62.52-1.32.78-2.11.78h-27.92c0,2.36.24,4.48.71,6.36s1.26,3.5,2.37,4.85c1.1,1.35,2.54,2.39,4.31,3.11,1.77.72,3.93,1.08,6.49,1.08,2.02,0,3.82-.17,5.4-.5,1.58-.33,2.94-.7,4.09-1.11s2.1-.78,2.84-1.11,1.3-.5,1.68-.5c.22,0,.42.06.59.17.17.11.31.28.4.5s.17.53.21.92.07.87.07,1.44c0,.41-.02.76-.05,1.06-.03.3-.07.57-.12.8-.05.24-.13.45-.24.64-.11.19-.25.37-.42.54-.17.17-.68.46-1.53.85-.85.39-1.95.78-3.3,1.15-1.35.38-2.91.71-4.69,1.01-1.78.3-3.67.45-5.68.45-3.49,0-6.54-.49-9.16-1.46-2.62-.97-4.83-2.42-6.62-4.33-1.79-1.92-3.14-4.32-4.05-7.21-.91-2.89-1.37-6.25-1.37-10.08s.47-6.92,1.41-9.82c.94-2.9,2.3-5.37,4.08-7.4,1.77-2.03,3.92-3.58,6.43-4.66s5.32-1.62,8.43-1.62c3.33,0,6.16.53,8.5,1.6,2.34,1.07,4.26,2.5,5.77,4.31,1.51,1.81,2.61,3.93,3.32,6.36.71,2.43,1.06,5.03,1.06,7.8v1.41ZM805.77,1905.41c.09-4.08-.81-7.29-2.73-9.61-1.91-2.32-4.75-3.49-8.51-3.49-1.93,0-3.62.36-5.07,1.08s-2.67,1.68-3.65,2.87c-.98,1.19-1.74,2.58-2.28,4.17-.54,1.59-.84,3.24-.9,4.97h23.13Z"/>
    <path d="M861.74,1930.76c0,.25-.05.47-.17.66s-.3.34-.57.45c-.27.11-.62.2-1.06.26-.44.06-.97.09-1.6.09-.66,0-1.21-.03-1.65-.09-.44-.06-.8-.15-1.08-.26-.28-.11-.49-.26-.61-.45s-.19-.41-.19-.66v-5.61c-2.23,2.42-4.55,4.3-6.95,5.65-2.4,1.35-5.03,2.03-7.89,2.03-3.11,0-5.76-.61-7.96-1.81s-3.98-2.84-5.35-4.9c-1.37-2.06-2.36-4.48-2.99-7.26-.63-2.78-.94-5.71-.94-8.79,0-3.64.39-6.93,1.18-9.87.79-2.94,1.95-5.44,3.49-7.51,1.54-2.07,3.45-3.67,5.72-4.78,2.28-1.11,4.91-1.67,7.89-1.67,2.48,0,4.75.54,6.81,1.62,2.06,1.08,4.09,2.68,6.1,4.78v-24.64c0-.22.05-.43.17-.64.11-.2.32-.36.64-.47.31-.11.71-.2,1.2-.28.49-.08,1.11-.12,1.86-.12s1.43.04,1.93.12c.5.08.89.17,1.18.28.28.11.49.27.64.47s.21.42.21.64v62.75ZM853.92,1900.94c-2.1-2.61-4.14-4.59-6.1-5.96s-4.01-2.05-6.15-2.05c-1.98,0-3.66.47-5.04,1.41-1.38.94-2.5,2.18-3.37,3.72-.86,1.54-1.49,3.28-1.88,5.23s-.59,3.93-.59,5.94c0,2.14.17,4.22.5,6.27.33,2.04.9,3.86,1.72,5.44.82,1.59,1.9,2.86,3.25,3.82s3.05,1.44,5.09,1.44c1.04,0,2.03-.14,2.99-.42.96-.28,1.94-.75,2.94-1.41,1-.66,2.06-1.52,3.16-2.57,1.1-1.05,2.26-2.35,3.49-3.89v-16.96Z"/>
    <path d="M936.93,1908.99c0,3.67-.4,6.98-1.2,9.92s-1.98,5.44-3.53,7.51c-1.55,2.07-3.46,3.66-5.72,4.76-2.26,1.1-4.85,1.65-7.77,1.65-1.35,0-2.6-.13-3.75-.4-1.15-.27-2.27-.7-3.37-1.3-1.1-.6-2.2-1.35-3.3-2.26-1.1-.91-2.26-2.01-3.49-3.3v5.18c0,.25-.06.47-.19.66-.13.19-.33.34-.61.45-.28.11-.64.2-1.06.26-.42.06-.97.09-1.62.09s-1.16-.03-1.6-.09c-.44-.06-.8-.15-1.08-.26-.28-.11-.47-.26-.57-.45-.09-.19-.14-.41-.14-.66v-62.94c0-.25.05-.47.17-.66.11-.19.31-.35.61-.47.3-.12.7-.22,1.2-.28.5-.06,1.13-.09,1.88-.09s1.43.03,1.93.09c.5.06.9.16,1.18.28.28.13.49.28.61.47.12.19.19.41.19.66v25.39c1.26-1.29,2.47-2.37,3.65-3.25,1.18-.88,2.33-1.59,3.46-2.14s2.26-.95,3.39-1.2c1.13-.25,2.32-.38,3.58-.38,3.08,0,5.71.61,7.89,1.84,2.18,1.22,3.96,2.87,5.32,4.92,1.37,2.06,2.36,4.47,2.99,7.23.63,2.76.94,5.69.94,8.76ZM928.88,1909.89c0-2.17-.17-4.27-.5-6.31-.33-2.04-.91-3.85-1.73-5.42-.82-1.57-1.91-2.83-3.27-3.79-1.36-.96-3.05-1.44-5.07-1.44-1.01,0-2.01.14-2.99.42-.98.28-1.97.75-2.99,1.41-1.01.66-2.06,1.51-3.15,2.54-1.09,1.04-2.25,2.34-3.48,3.91v16.91c2.15,2.61,4.2,4.59,6.16,5.96,1.96,1.37,4,2.05,6.12,2.05,1.96,0,3.63-.47,5.02-1.41s2.52-2.19,3.39-3.75c.87-1.55,1.5-3.3,1.9-5.23.39-1.93.59-3.89.59-5.87Z"/>
    <path d="M967.46,1931.94l-5.65,15.59c-.19.5-.67.89-1.44,1.15-.77.27-1.94.4-3.51.4-.82,0-1.48-.04-1.98-.12-.5-.08-.89-.21-1.15-.4s-.42-.44-.45-.75c-.03-.31.05-.69.24-1.13l5.84-14.75c-.28-.12-.55-.33-.8-.61-.25-.28-.42-.58-.52-.9l-15.12-40.52c-.25-.66-.38-1.18-.38-1.55s.12-.68.38-.9c.25-.22.66-.37,1.23-.45s1.32-.12,2.26-.12,1.68.02,2.21.07c.53.05.96.13,1.27.26.31.13.54.31.68.54.14.24.29.56.45.97l12.11,34.02h.14l11.68-34.2c.19-.6.42-.98.68-1.15.27-.17.67-.3,1.2-.38.53-.08,1.3-.12,2.31-.12.88,0,1.6.04,2.17.12s.98.23,1.25.45.4.52.4.9-.09.85-.28,1.41l-15.22,42.17Z"/>
  </g>
  <g>
    <path d="M663.36,2542.91h-37.86v-1.04c11.61-13.82,18.65-23.12,21.13-27.89,2.48-4.77,3.72-9.44,3.72-13.99,0-3.32-1.03-6.08-3.08-8.28-2.06-2.2-4.57-3.3-7.54-3.3-4.87,0-8.65,2.44-11.34,7.3l-1.76-.62c1.71-6.07,4.3-10.56,7.78-13.47,3.48-2.91,7.5-4.36,12.05-4.36,3.26,0,6.23.76,8.92,2.28,2.69,1.52,4.79,3.6,6.31,6.24s2.28,5.12,2.28,7.42c0,4.21-1.17,8.48-3.51,12.81-3.19,5.85-10.17,14.01-20.92,24.48h13.9c3.42,0,5.64-.14,6.67-.43,1.03-.29,1.87-.77,2.54-1.45.66-.68,1.53-2.11,2.61-4.29h1.71l-3.6,18.6Z"/>
    <path d="M716.73,2510.74c0,6.42-.9,12.41-2.7,17.98-1.08,3.42-2.52,6.21-4.34,8.4-1.82,2.18-3.88,3.91-6.19,5.19-2.31,1.28-4.82,1.92-7.54,1.92-3.1,0-5.9-.79-8.4-2.37-2.5-1.58-4.71-3.84-6.64-6.78-1.39-2.15-2.61-5.01-3.65-8.59-1.36-4.84-2.04-9.84-2.04-14.99,0-6.99.98-13.41,2.94-19.26,1.61-4.84,4.06-8.55,7.35-11.12,3.29-2.58,6.77-3.87,10.44-3.87s7.22,1.27,10.46,3.82,5.62,5.97,7.14,10.27c2.12,5.92,3.18,12.38,3.18,19.4ZM702.12,2510.65c0-11.26-.06-17.82-.19-19.69-.32-4.4-1.08-7.37-2.28-8.92-.79-1.01-2.07-1.52-3.84-1.52-1.36,0-2.44.38-3.23,1.14-1.17,1.11-1.96,3.06-2.37,5.86-.41,2.8-.62,12.56-.62,29.29,0,9.11.32,15.21.95,18.31.47,2.25,1.15,3.75,2.04,4.51.89.76,2.06,1.14,3.51,1.14,1.58,0,2.77-.51,3.56-1.52,1.33-1.77,2.09-4.51,2.28-8.21l.19-20.4Z"/>
    <path d="M760.51,2542.91h-37.86v-1.04c11.61-13.82,18.65-23.12,21.13-27.89,2.48-4.77,3.72-9.44,3.72-13.99,0-3.32-1.03-6.08-3.08-8.28-2.06-2.2-4.57-3.3-7.54-3.3-4.87,0-8.65,2.44-11.34,7.3l-1.76-.62c1.71-6.07,4.3-10.56,7.78-13.47,3.48-2.91,7.49-4.36,12.05-4.36,3.26,0,6.23.76,8.92,2.28,2.69,1.52,4.79,3.6,6.31,6.24,1.52,2.64,2.28,5.12,2.28,7.42,0,4.21-1.17,8.48-3.51,12.81-3.2,5.85-10.17,14.01-20.92,24.48h13.9c3.42,0,5.64-.14,6.67-.43,1.03-.29,1.87-.77,2.54-1.45.66-.68,1.54-2.11,2.61-4.29h1.71l-3.61,18.6Z"/>
    <path d="M814.5,2477.25v1.33c-5.72,1.46-10.32,3.33-13.78,5.62s-6.2,5.08-8.21,8.35-3.57,7.33-4.67,12.17c1.39-.95,2.54-1.57,3.46-1.85,2.05-.63,4.13-.95,6.21-.95,4.81,0,8.82,1.75,12.03,5.24s4.82,8.26,4.82,14.3c0,4.24-.87,8.13-2.61,11.67-1.74,3.54-4.21,6.28-7.4,8.21s-6.61,2.89-10.25,2.89c-3.95,0-7.61-1.08-10.96-3.25-3.35-2.17-5.97-5.34-7.85-9.51-1.88-4.17-2.82-8.71-2.82-13.61,0-7.21,1.73-13.92,5.19-20.14,3.46-6.21,8.38-11.16,14.75-14.85,6.37-3.68,13.73-5.56,22.08-5.62ZM787.22,2508.56c-.25,4.36-.38,7.56-.38,9.58,0,4.36.42,8.59,1.26,12.67.84,4.08,1.98,6.94,3.44,8.59,1.04,1.17,2.28,1.76,3.7,1.76s2.75-.85,3.89-2.54c1.14-1.69,1.71-5.13,1.71-10.32,0-8.73-1.06-14.75-3.18-18.07-1.36-2.15-3.19-3.23-5.5-3.23-1.27,0-2.91.52-4.93,1.57Z"/>
  </g>
  <g>
    <path d="M178.72,1254.07c0,1.88-.08,3.49-.24,4.82-.16,1.33-.41,2.4-.73,3.21-.33.81-.73,1.41-1.22,1.8-.49.39-1.02.58-1.61.58h-31.54v101.54c0,.65-.21,1.23-.63,1.75-.42.52-1.12.94-2.09,1.27-.97.33-2.29.58-3.94.78-1.65.19-3.72.29-6.18.29s-4.53-.1-6.18-.29c-1.66-.19-2.97-.45-3.94-.78-.97-.32-1.67-.75-2.09-1.27-.42-.52-.63-1.1-.63-1.75v-101.54h-31.54c-.65,0-1.2-.19-1.65-.58-.46-.39-.84-.99-1.17-1.8-.33-.81-.57-1.88-.73-3.21-.16-1.33-.24-2.94-.24-4.82s.08-3.6.24-4.96c.16-1.36.4-2.45.73-3.26.32-.81.71-1.4,1.17-1.75.45-.36,1.01-.54,1.65-.54h88.79c.58,0,1.12.18,1.61.54.49.36.89.94,1.22,1.75.32.81.57,1.9.73,3.26.16,1.36.24,3.02.24,4.96Z"/>
    <path d="M275.1,1366.22c0,.65-.19,1.22-.58,1.7-.39.49-1.04.89-1.95,1.22-.91.33-2.16.57-3.75.73-1.59.16-3.55.24-5.89.24s-4.4-.08-5.99-.24c-1.59-.16-2.84-.4-3.75-.73-.91-.32-1.56-.73-1.95-1.22-.39-.49-.58-1.05-.58-1.7v-49.55c0-4.22-.31-7.53-.92-9.93-.62-2.4-1.51-4.46-2.68-6.18-1.17-1.72-2.68-3.05-4.53-3.99-1.85-.94-4.01-1.41-6.47-1.41-3.12,0-6.26,1.14-9.44,3.41-3.18,2.27-6.49,5.58-9.93,9.93v57.73c0,.65-.19,1.22-.58,1.7-.39.49-1.06.89-2,1.22-.94.33-2.19.57-3.75.73-1.56.16-3.54.24-5.94.24s-4.38-.08-5.94-.24c-1.56-.16-2.81-.4-3.75-.73-.94-.32-1.61-.73-2-1.22-.39-.49-.58-1.05-.58-1.7v-128.02c0-.65.19-1.23.58-1.75.39-.52,1.05-.96,2-1.31.94-.36,2.19-.63,3.75-.83,1.56-.19,3.54-.29,5.94-.29s4.38.1,5.94.29c1.56.19,2.81.47,3.75.83.94.36,1.61.8,2,1.31.39.52.58,1.1.58,1.75v47.99c4.22-4.15,8.52-7.25,12.9-9.3s8.94-3.07,13.68-3.07c5.91,0,10.89.97,14.94,2.92,4.06,1.95,7.33,4.61,9.83,7.98,2.5,3.38,4.3,7.32,5.4,11.83,1.1,4.51,1.65,9.98,1.65,16.4v53.25Z"/>
    <path d="M379.37,1320.27c0,2.99-.67,5.19-2,6.62-1.33,1.43-3.16,2.14-5.5,2.14h-52.86c0,3.7.44,7.06,1.31,10.08.88,3.02,2.27,5.58,4.19,7.69,1.91,2.11,4.38,3.72,7.4,4.82,3.02,1.1,6.64,1.65,10.85,1.65s8.05-.31,11.29-.92c3.24-.62,6.05-1.3,8.42-2.04,2.37-.75,4.33-1.43,5.89-2.04,1.56-.62,2.82-.92,3.8-.92.58,0,1.07.11,1.46.34.39.23.71.63.97,1.22.26.58.44,1.41.54,2.48s.15,2.42.15,4.04c0,1.43-.03,2.65-.1,3.65-.07,1.01-.16,1.87-.29,2.58-.13.72-.33,1.31-.58,1.8-.26.49-.6.96-1.02,1.41-.42.45-1.57,1.07-3.46,1.85-1.88.78-4.28,1.54-7.2,2.29-2.92.75-6.26,1.4-10.03,1.95-3.76.55-7.79.83-12.07.83-7.72,0-14.49-.97-20.3-2.92-5.81-1.95-10.66-4.9-14.55-8.86-3.89-3.96-6.8-8.96-8.71-14.99-1.92-6.04-2.87-13.11-2.87-21.22s1.01-14.68,3.02-20.88c2.01-6.2,4.93-11.45,8.76-15.77,3.83-4.32,8.48-7.61,13.97-9.88,5.48-2.27,11.67-3.41,18.55-3.41,7.27,0,13.48,1.07,18.64,3.21s9.39,5.11,12.7,8.91c3.31,3.8,5.74,8.29,7.3,13.48,1.56,5.19,2.34,10.84,2.34,16.94v3.89ZM355.61,1313.26c.19-6.88-1.19-12.28-4.14-16.21-2.95-3.93-7.51-5.89-13.68-5.89-3.12,0-5.83.58-8.13,1.75-2.3,1.17-4.22,2.74-5.74,4.72-1.53,1.98-2.69,4.32-3.5,7.01-.81,2.69-1.28,5.57-1.41,8.62h36.6Z"/>
    <path d="M544.38,1366.03c0,.65-.21,1.23-.63,1.75-.42.52-1.12.94-2.09,1.27-.97.33-2.27.58-3.89.78-1.62.19-3.67.29-6.13.29s-4.62-.1-6.28-.29c-1.66-.19-2.95-.45-3.89-.78-.94-.32-1.62-.75-2.04-1.27-.42-.52-.63-1.1-.63-1.75v-50.92h-47.12v50.92c0,.65-.19,1.23-.58,1.75-.39.52-1.07.94-2.04,1.27-.97.33-2.27.58-3.89.78-1.62.19-3.7.29-6.23.29s-4.53-.1-6.18-.29c-1.65-.19-2.97-.45-3.94-.78-.97-.32-1.67-.75-2.09-1.27-.42-.52-.63-1.1-.63-1.75v-118.96c0-.65.21-1.23.63-1.75.42-.52,1.12-.94,2.09-1.27.97-.32,2.29-.58,3.94-.78,1.66-.19,3.71-.29,6.18-.29s4.61.1,6.23.29c1.62.19,2.92.46,3.89.78.97.33,1.65.75,2.04,1.27.39.52.58,1.1.58,1.75v46.24h47.12v-46.24c0-.65.21-1.23.63-1.75.42-.52,1.1-.94,2.04-1.27.94-.32,2.24-.58,3.89-.78,1.65-.19,3.75-.29,6.28-.29s4.51.1,6.13.29c1.62.19,2.92.46,3.89.78.97.33,1.67.75,2.09,1.27.42.52.63,1.1.63,1.75v118.96Z"/>
    <path d="M658.18,1321.93c0,7.4-.97,14.15-2.92,20.25-1.95,6.1-4.9,11.36-8.86,15.77-3.96,4.41-8.92,7.82-14.9,10.22-5.97,2.4-12.95,3.6-20.93,3.6s-14.44-1.07-20.15-3.21c-5.71-2.14-10.45-5.26-14.21-9.35-3.76-4.09-6.56-9.12-8.37-15.09-1.82-5.97-2.73-12.79-2.73-20.44s.99-14.17,2.97-20.3c1.98-6.13,4.95-11.39,8.91-15.77,3.96-4.38,8.91-7.77,14.85-10.17,5.94-2.4,12.9-3.6,20.88-3.6s14.54,1.06,20.25,3.16c5.71,2.11,10.43,5.21,14.16,9.3,3.73,4.09,6.51,9.12,8.32,15.09,1.82,5.97,2.73,12.82,2.73,20.54ZM632.97,1322.9c0-4.28-.34-8.23-1.02-11.83-.68-3.6-1.83-6.73-3.46-9.39-1.62-2.66-3.78-4.74-6.47-6.23-2.69-1.49-6.08-2.24-10.17-2.24-3.64,0-6.81.67-9.54,2-2.73,1.33-4.96,3.28-6.72,5.84-1.75,2.56-3.07,5.65-3.94,9.25-.88,3.6-1.31,7.71-1.31,12.31,0,4.28.36,8.23,1.07,11.83.71,3.6,1.86,6.73,3.46,9.39,1.59,2.66,3.75,4.72,6.47,6.18,2.73,1.46,6.1,2.19,10.12,2.19,3.7,0,6.91-.66,9.64-2,2.73-1.33,4.96-3.26,6.72-5.79s3.05-5.6,3.89-9.2c.84-3.6,1.27-7.71,1.27-12.31Z"/>
    <path d="M702.09,1366.22c0,.65-.19,1.22-.58,1.7-.39.49-1.06.89-2,1.22-.94.33-2.19.57-3.75.73-1.56.16-3.54.24-5.94.24s-4.38-.08-5.94-.24c-1.56-.16-2.81-.4-3.75-.73-.94-.32-1.61-.73-2-1.22-.39-.49-.58-1.05-.58-1.7v-128.02c0-.65.19-1.23.58-1.75.39-.52,1.05-.96,2-1.31.94-.36,2.19-.63,3.75-.83,1.56-.19,3.54-.29,5.94-.29s4.38.1,5.94.29c1.56.19,2.81.47,3.75.83.94.36,1.61.8,2,1.31.39.52.58,1.1.58,1.75v128.02Z"/>
    <path d="M776.85,1369.53l-10.52,30.76c-.58,1.62-2.17,2.79-4.77,3.5-2.6.71-6.39,1.07-11.39,1.07-2.6,0-4.67-.11-6.23-.34-1.56-.23-2.73-.6-3.5-1.12-.78-.52-1.2-1.17-1.27-1.95-.07-.78.13-1.72.58-2.82l11.58-29.11c-.84-.39-1.61-.99-2.29-1.8-.68-.81-1.19-1.67-1.51-2.58l-29.89-79.83c-.84-2.27-1.27-4.01-1.27-5.21s.39-2.14,1.17-2.82c.78-.68,2.09-1.15,3.94-1.41,1.85-.26,4.3-.39,7.35-.39,2.79,0,5,.05,6.62.15,1.62.1,2.89.34,3.8.73.91.39,1.59.99,2.04,1.8.45.81.91,1.96,1.36,3.46l20.44,58.12h.29l18.69-59.29c.39-1.69.89-2.81,1.51-3.36.62-.55,1.64-.96,3.07-1.22,1.43-.26,3.93-.39,7.5-.39,2.79,0,5.11.13,6.96.39,1.85.26,3.21.75,4.09,1.46.88.71,1.31,1.67,1.31,2.87s-.26,2.61-.78,4.23l-28.91,85.09Z"/>
    <path d="M992.68,1381.5c0,2.34-.11,4.22-.34,5.65-.23,1.43-.54,2.53-.92,3.31-.39.78-.81,1.28-1.27,1.51-.45.23-.94.34-1.46.34-2.14,0-4.95-.58-8.42-1.75-3.47-1.17-7.22-2.84-11.24-5.01-4.02-2.17-8.13-4.84-12.32-7.98-4.19-3.15-8.06-6.77-11.63-10.85-2.99,1.36-6.61,2.55-10.86,3.55-4.25,1.01-8.97,1.51-14.16,1.51-9.8,0-18.35-1.25-25.65-3.75-7.3-2.5-13.39-6.38-18.25-11.63-4.87-5.26-8.52-11.96-10.95-20.1-2.43-8.14-3.65-17.83-3.65-29.06,0-10.19,1.3-19.36,3.89-27.5,2.59-8.14,6.46-15.06,11.58-20.74,5.13-5.68,11.47-10.04,19.03-13.09,7.56-3.05,16.34-4.58,26.33-4.58,9.41,0,17.73,1.27,24.97,3.8,7.24,2.53,13.34,6.41,18.3,11.63,4.96,5.23,8.73,11.83,11.29,19.81,2.56,7.98,3.84,17.43,3.84,28.33,0,5.65-.37,10.95-1.12,15.92-.75,4.96-1.83,9.56-3.26,13.78-1.43,4.22-3.18,8.08-5.26,11.58-2.08,3.5-4.45,6.59-7.11,9.25,4.02,3.5,7.59,6.17,10.71,7.98,3.12,1.82,5.73,3.18,7.84,4.09,2.11.91,3.8,1.57,5.06,2s2.25.97,2.97,1.66c.71.68,1.23,1.85,1.56,3.5.32,1.66.49,3.94.49,6.86ZM953.94,1306.25c0-6.55-.52-12.52-1.56-17.91-1.04-5.39-2.81-10.01-5.31-13.87-2.5-3.86-5.83-6.85-9.98-8.96-4.15-2.11-9.35-3.16-15.58-3.16s-11.55,1.17-15.77,3.5c-4.22,2.34-7.63,5.48-10.22,9.44-2.6,3.96-4.43,8.58-5.5,13.87-1.07,5.29-1.61,10.85-1.61,16.7,0,6.95.52,13.18,1.56,18.69,1.04,5.52,2.79,10.22,5.26,14.12,2.47,3.89,5.78,6.86,9.93,8.91,4.15,2.04,9.38,3.07,15.67,3.07s11.55-1.17,15.77-3.5c4.22-2.34,7.62-5.52,10.22-9.54,2.59-4.02,4.43-8.73,5.5-14.12,1.07-5.39,1.61-11.13,1.61-17.23Z"/>
    <path d="M1085.17,1366.22c0,.65-.16,1.22-.49,1.7-.33.49-.89.89-1.7,1.22-.81.33-1.88.57-3.21.73-1.33.16-3,.24-5.01.24-2.14,0-3.88-.08-5.21-.24-1.33-.16-2.38-.4-3.16-.73-.78-.32-1.33-.73-1.65-1.22-.33-.49-.49-1.05-.49-1.7v-10.03c-4.8,5.19-9.69,9.09-14.65,11.68-4.96,2.59-10.11,3.89-15.43,3.89-5.97,0-10.99-.97-15.04-2.92-4.06-1.95-7.33-4.61-9.83-7.98-2.5-3.37-4.28-7.28-5.35-11.73-1.07-4.44-1.61-9.98-1.61-16.6v-53.15c0-.65.18-1.22.54-1.7.36-.49,1-.89,1.95-1.22.94-.32,2.21-.57,3.8-.73,1.59-.16,3.55-.24,5.89-.24s4.38.08,5.94.24c1.56.16,2.81.41,3.75.73.94.33,1.61.73,2,1.22s.58,1.06.58,1.7v49.07c0,4.54.29,8.02.88,10.42.58,2.4,1.48,4.46,2.68,6.18,1.2,1.72,2.73,3.05,4.58,3.99,1.85.94,4.01,1.41,6.47,1.41,3.12,0,6.25-1.13,9.39-3.41,3.15-2.27,6.51-5.58,10.08-9.93v-57.73c0-.65.18-1.22.54-1.7.36-.49,1.01-.89,1.95-1.22.94-.32,2.19-.57,3.75-.73,1.56-.16,3.54-.24,5.94-.24s4.38.08,5.94.24c1.56.16,2.79.41,3.7.73.91.33,1.56.73,1.95,1.22s.58,1.06.58,1.7v86.84Z"/>
    <path d="M1165.58,1287.46c0,2.34-.07,4.25-.19,5.74-.13,1.49-.33,2.66-.58,3.5-.26.84-.6,1.43-1.02,1.75-.42.33-.96.49-1.61.49-.52,0-1.1-.11-1.75-.34-.65-.23-1.38-.47-2.19-.73-.81-.26-1.7-.5-2.68-.73-.97-.23-2.04-.34-3.21-.34-1.36,0-2.73.28-4.09.83-1.36.55-2.77,1.41-4.24,2.58-1.46,1.17-2.99,2.73-4.58,4.67-1.59,1.95-3.29,4.35-5.11,7.2v54.13c0,.65-.19,1.22-.58,1.7s-1.06.89-2,1.22c-.94.33-2.19.57-3.75.73-1.56.16-3.54.24-5.94.24s-4.38-.08-5.94-.24c-1.56-.16-2.81-.4-3.75-.73-.94-.32-1.61-.73-2-1.22s-.58-1.05-.58-1.7v-86.84c0-.65.16-1.22.49-1.7.32-.49.91-.89,1.75-1.22.84-.32,1.93-.57,3.26-.73,1.33-.16,3-.24,5.01-.24s3.8.08,5.16.24c1.36.16,2.42.41,3.16.73.75.33,1.28.73,1.61,1.22.32.49.49,1.06.49,1.7v10.81c2.27-3.24,4.41-5.92,6.42-8.03,2.01-2.11,3.93-3.78,5.74-5.01,1.82-1.23,3.63-2.09,5.45-2.58,1.82-.49,3.63-.73,5.45-.73.84,0,1.75.05,2.73.15.97.1,1.98.26,3.02.49,1.04.23,1.95.49,2.73.78.78.29,1.35.6,1.7.92.36.33.62.68.78,1.07.16.39.31.92.44,1.61.13.68.23,1.7.29,3.07s.1,3.21.1,5.55Z"/>
    <path d="M1250.28,1366.51c0,.91-.33,1.62-.97,2.14-.65.52-1.67.89-3.07,1.12-1.4.23-3.46.34-6.18.34-2.92,0-5.05-.11-6.38-.34-1.33-.23-2.27-.6-2.82-1.12-.55-.52-.83-1.23-.83-2.14v-6.91c-3.57,3.83-7.64,6.81-12.22,8.96-4.58,2.14-9.65,3.21-15.24,3.21-4.61,0-8.84-.6-12.71-1.8-3.86-1.2-7.2-2.98-10.03-5.35-2.82-2.37-5.01-5.31-6.57-8.81-1.56-3.5-2.34-7.59-2.34-12.27,0-5.06.99-9.46,2.97-13.19,1.98-3.73,4.93-6.81,8.86-9.25,3.93-2.43,8.81-4.23,14.65-5.4,5.84-1.17,12.62-1.75,20.35-1.75h8.47v-5.26c0-2.73-.28-5.11-.83-7.16-.55-2.04-1.46-3.75-2.73-5.11s-2.95-2.37-5.06-3.02c-2.11-.65-4.72-.97-7.84-.97-4.09,0-7.74.45-10.95,1.36-3.21.91-6.05,1.92-8.52,3.02-2.47,1.1-4.53,2.11-6.18,3.02-1.66.91-3,1.36-4.04,1.36-.72,0-1.35-.23-1.9-.68-.55-.45-1.01-1.1-1.36-1.95-.36-.84-.63-1.88-.83-3.12-.2-1.23-.29-2.59-.29-4.09,0-2.01.16-3.6.49-4.77.32-1.17.94-2.22,1.85-3.16.91-.94,2.5-1.98,4.77-3.12,2.27-1.13,4.93-2.19,7.98-3.16,3.05-.97,6.38-1.77,9.98-2.38,3.6-.62,7.32-.92,11.15-.92,6.81,0,12.64.67,17.47,2,4.83,1.33,8.81,3.38,11.93,6.13,3.12,2.76,5.39,6.31,6.81,10.66,1.43,4.35,2.14,9.51,2.14,15.48v58.41ZM1226.23,1329.32h-9.35c-3.96,0-7.33.29-10.12.88-2.79.58-5.06,1.46-6.81,2.63-1.75,1.17-3.03,2.58-3.85,4.23-.81,1.65-1.22,3.55-1.22,5.69,0,3.64,1.15,6.49,3.46,8.57,2.3,2.08,5.5,3.12,9.59,3.12,3.44,0,6.6-.88,9.49-2.63,2.89-1.75,5.82-4.32,8.81-7.69v-14.8Z"/>
    <path d="M1357.66,1366.22c0,.65-.19,1.22-.58,1.7s-1.04.89-1.95,1.22c-.91.33-2.16.57-3.75.73-1.59.16-3.55.24-5.89.24s-4.4-.08-5.99-.24c-1.59-.16-2.84-.4-3.75-.73-.91-.32-1.56-.73-1.95-1.22-.39-.49-.58-1.05-.58-1.7v-49.55c0-4.22-.31-7.53-.92-9.93-.62-2.4-1.51-4.46-2.68-6.18-1.17-1.72-2.68-3.05-4.53-3.99-1.85-.94-4.01-1.41-6.47-1.41-3.12,0-6.26,1.14-9.44,3.41-3.18,2.27-6.49,5.58-9.93,9.93v57.73c0,.65-.19,1.22-.58,1.7s-1.06.89-2,1.22c-.94.33-2.19.57-3.75.73-1.56.16-3.54.24-5.94.24s-4.38-.08-5.94-.24c-1.56-.16-2.81-.4-3.75-.73-.94-.32-1.61-.73-2-1.22s-.58-1.05-.58-1.7v-86.84c0-.65.16-1.22.49-1.7.32-.49.91-.89,1.75-1.22.84-.32,1.93-.57,3.26-.73,1.33-.16,3-.24,5.01-.24s3.8.08,5.16.24c1.36.16,2.42.41,3.16.73.75.33,1.28.73,1.61,1.22.32.49.49,1.06.49,1.7v10.03c4.8-5.19,9.69-9.09,14.65-11.68,4.96-2.6,10.14-3.89,15.53-3.89,5.91,0,10.89.97,14.94,2.92,4.06,1.95,7.33,4.59,9.83,7.93,2.5,3.34,4.3,7.25,5.4,11.73,1.1,4.48,1.65,9.87,1.65,16.16v53.64Z"/>
  </g>
  <g>
    <path d="M477.5,1517.19c-.13.35-.3.63-.52.85s-.53.39-.92.52c-.39.12-.9.21-1.51.26-.61.05-1.37.07-2.28.07-.69,0-1.3,0-1.81-.02s-.97-.05-1.34-.12c-.38-.06-.7-.13-.97-.21-.27-.08-.49-.18-.68-.31-.19-.12-.34-.27-.45-.45-.11-.17-.21-.38-.31-.64l-19.93-56.63c-.25-.69-.39-1.25-.4-1.67-.02-.42.12-.75.4-.97s.74-.36,1.37-.42c.63-.06,1.48-.09,2.54-.09.88,0,1.58.02,2.1.07.52.05.92.13,1.2.26.28.13.49.29.64.49.14.21.27.46.4.78l17.48,51.31h.05l17.01-51.21c.09-.35.2-.63.33-.85.12-.22.35-.39.66-.52.31-.12.75-.21,1.32-.26.56-.05,1.32-.07,2.26-.07s1.74.04,2.31.12.95.23,1.15.45c.2.22.28.54.24.97-.05.42-.2.98-.45,1.67l-19.88,56.63Z"/>
    <path d="M538.09,1494.39c0,1.22-.31,2.1-.92,2.61-.62.52-1.32.78-2.11.78h-27.92c0,2.36.24,4.48.71,6.36s1.26,3.5,2.37,4.85c1.1,1.35,2.54,2.39,4.31,3.11,1.77.72,3.93,1.08,6.49,1.08,2.02,0,3.82-.17,5.4-.5,1.58-.33,2.94-.7,4.1-1.11s2.1-.78,2.84-1.11,1.3-.5,1.68-.5c.22,0,.42.06.59.17.17.11.31.28.4.5.09.22.17.53.21.92.05.39.07.87.07,1.44,0,.41-.02.76-.05,1.06-.03.3-.07.57-.12.8-.05.24-.13.45-.24.64-.11.19-.25.37-.42.54-.17.17-.68.46-1.53.85-.85.39-1.95.78-3.3,1.15-1.35.38-2.91.71-4.69,1.01s-3.67.45-5.68.45c-3.49,0-6.54-.49-9.16-1.46-2.62-.97-4.83-2.42-6.62-4.33-1.79-1.92-3.14-4.32-4.05-7.21-.91-2.89-1.37-6.25-1.37-10.08s.47-6.92,1.41-9.82c.94-2.9,2.3-5.37,4.08-7.4,1.77-2.03,3.92-3.58,6.43-4.66,2.51-1.08,5.32-1.62,8.43-1.62,3.33,0,6.16.53,8.5,1.6,2.34,1.07,4.26,2.5,5.77,4.31,1.51,1.81,2.61,3.93,3.32,6.36.71,2.43,1.06,5.03,1.06,7.8v1.41ZM530.26,1492.08c.09-4.08-.81-7.29-2.73-9.61-1.91-2.32-4.75-3.49-8.51-3.49-1.93,0-3.62.36-5.07,1.08-1.45.72-2.67,1.68-3.65,2.87-.98,1.19-1.74,2.58-2.28,4.17-.54,1.59-.84,3.24-.9,4.97h23.13Z"/>
    <path d="M574.69,1477.8c0,.69-.02,1.27-.05,1.74-.03.47-.09.84-.19,1.11s-.21.47-.35.61c-.14.14-.34.21-.59.21s-.56-.07-.92-.21c-.36-.14-.77-.28-1.22-.42-.46-.14-.97-.28-1.53-.4-.57-.13-1.18-.19-1.84-.19-.79,0-1.55.16-2.31.47-.75.31-1.55.83-2.38,1.55-.83.72-1.7,1.68-2.61,2.87-.91,1.19-1.92,2.65-3.02,4.38v27.89c0,.25-.06.46-.19.64-.13.17-.33.32-.61.45-.28.12-.68.22-1.18.28-.5.06-1.15.09-1.93.09s-1.38-.03-1.88-.09c-.5-.06-.9-.16-1.2-.28-.3-.13-.5-.28-.61-.45-.11-.17-.16-.38-.16-.64v-42.4c0-.25.05-.46.14-.64.09-.17.28-.33.57-.47s.64-.24,1.08-.28c.44-.05,1.02-.07,1.74-.07s1.26.02,1.72.07c.46.05.81.14,1.06.28.25.14.43.3.54.47.11.17.16.38.16.64v6.17c1.16-1.7,2.25-3.08,3.27-4.15,1.02-1.07,1.99-1.91,2.9-2.52.91-.61,1.81-1.04,2.71-1.27.9-.24,1.8-.35,2.71-.35.41,0,.87.02,1.39.07.52.05,1.06.13,1.62.26.57.13,1.08.27,1.53.42.46.16.78.31.97.47s.31.31.38.45c.06.14.12.32.17.54.05.22.08.54.09.97.02.42.02,1,.02,1.72Z"/>
    <path d="M608.52,1505.88c0,2.17-.4,4.1-1.2,5.79-.8,1.7-1.94,3.13-3.42,4.29-1.48,1.16-3.24,2.04-5.28,2.64-2.04.6-4.29.9-6.74.9-1.51,0-2.94-.12-4.31-.35s-2.59-.53-3.67-.9c-1.08-.36-2-.74-2.76-1.13-.75-.39-1.3-.75-1.65-1.06-.35-.31-.6-.75-.75-1.32-.16-.57-.24-1.33-.24-2.31,0-.6.03-1.1.09-1.51.06-.41.14-.74.24-.99.09-.25.23-.43.4-.54.17-.11.37-.17.59-.17.35,0,.86.21,1.53.64.67.42,1.51.89,2.5,1.39.99.5,2.16.97,3.51,1.39,1.35.42,2.9.64,4.66.64,1.32,0,2.51-.14,3.58-.42,1.07-.28,1.99-.7,2.78-1.25.78-.55,1.39-1.25,1.81-2.1s.64-1.85.64-3.02-.31-2.2-.92-3.01-1.42-1.54-2.43-2.17c-1.01-.63-2.14-1.19-3.39-1.67-1.26-.49-2.55-1-3.89-1.53-1.34-.53-2.64-1.14-3.91-1.81s-2.41-1.5-3.42-2.47c-1.01-.97-1.81-2.14-2.43-3.49-.61-1.35-.92-2.97-.92-4.85,0-1.67.32-3.26.97-4.78.64-1.52,1.61-2.86,2.9-4,1.29-1.15,2.9-2.06,4.83-2.76,1.93-.69,4.19-1.04,6.76-1.04,1.13,0,2.26.09,3.39.28,1.13.19,2.15.42,3.06.71.91.28,1.69.59,2.33.92.64.33,1.13.62,1.46.87.33.25.55.47.66.66.11.19.19.4.24.64.05.24.09.53.14.87.05.35.07.77.07,1.27,0,.53-.02,1-.07,1.39-.05.39-.13.71-.24.97-.11.25-.24.43-.4.54-.16.11-.33.17-.52.17-.28,0-.69-.17-1.23-.52-.53-.35-1.22-.71-2.07-1.11-.85-.39-1.85-.76-2.99-1.11-1.15-.34-2.46-.52-3.93-.52-1.32,0-2.48.15-3.49.45-1.01.3-1.83.72-2.47,1.27-.64.55-1.13,1.2-1.46,1.96-.33.75-.49,1.57-.49,2.45,0,1.23.31,2.25.94,3.09.63.83,1.44,1.56,2.45,2.19,1,.63,2.15,1.19,3.44,1.7,1.29.5,2.6,1.02,3.93,1.55,1.33.53,2.65,1.13,3.96,1.79,1.3.66,2.46,1.46,3.46,2.4,1,.94,1.81,2.07,2.43,3.39.61,1.32.92,2.89.92,4.71Z"/>
    <path d="M628.31,1460.7c0,1.82-.35,3.06-1.04,3.72-.69.66-1.96.99-3.82.99s-3.07-.32-3.75-.97c-.68-.64-1.01-1.86-1.01-3.65s.35-3.06,1.04-3.72c.69-.66,1.96-.99,3.82-.99s3.07.32,3.75.97c.67.64,1.01,1.86,1.01,3.65ZM627.41,1517.42c0,.25-.06.46-.19.64-.13.17-.33.32-.61.45-.28.12-.68.22-1.18.28-.5.06-1.15.09-1.93.09s-1.38-.03-1.88-.09c-.5-.06-.9-.16-1.2-.28-.3-.13-.5-.28-.61-.45-.11-.17-.16-.38-.16-.64v-42.4c0-.22.05-.42.16-.61.11-.19.31-.34.61-.47.3-.12.7-.22,1.2-.28.5-.06,1.13-.09,1.88-.09s1.43.03,1.93.09c.5.06.9.16,1.18.28.28.13.49.28.61.47.12.19.19.39.19.61v42.4Z"/>
    <path d="M681.21,1495.75c0,3.46-.46,6.64-1.37,9.54-.91,2.91-2.27,5.41-4.08,7.51-1.81,2.1-4.07,3.75-6.78,4.92-2.72,1.18-5.87,1.77-9.45,1.77s-6.52-.52-9.12-1.55c-2.59-1.04-4.75-2.54-6.48-4.52-1.73-1.98-3.02-4.38-3.86-7.21s-1.27-6.03-1.27-9.61.45-6.63,1.34-9.54,2.25-5.41,4.05-7.51c1.81-2.1,4.06-3.74,6.76-4.9,2.7-1.16,5.86-1.74,9.47-1.74s6.52.52,9.12,1.55c2.59,1.04,4.75,2.54,6.48,4.52,1.73,1.98,3.02,4.38,3.89,7.21.86,2.83,1.3,6.02,1.3,9.56ZM673.16,1496.27c0-2.29-.21-4.46-.64-6.5-.43-2.04-1.13-3.83-2.12-5.37-.98-1.54-2.31-2.76-3.99-3.65-1.68-.89-3.77-1.34-6.27-1.34-2.31,0-4.3.41-5.97,1.23s-3.03,1.97-4.11,3.46c-1.08,1.49-1.88,3.26-2.4,5.3-.52,2.04-.78,4.27-.78,6.69s.21,4.51.64,6.55c.43,2.04,1.14,3.82,2.14,5.35s2.34,2.73,4.02,3.63c1.68.89,3.77,1.34,6.28,1.34,2.28,0,4.26-.41,5.94-1.23,1.68-.82,3.06-1.96,4.14-3.44s1.87-3.24,2.38-5.28c.51-2.04.76-4.29.76-6.74Z"/>
    <path d="M729.18,1517.42c0,.25-.06.46-.19.64-.12.17-.33.32-.61.45-.28.12-.68.22-1.18.28-.5.06-1.13.09-1.88.09s-1.43-.03-1.93-.09c-.5-.06-.89-.16-1.18-.28-.28-.13-.49-.28-.61-.45-.13-.17-.19-.38-.19-.64v-24.83c0-2.42-.19-4.37-.57-5.84-.38-1.48-.93-2.75-1.65-3.82-.72-1.07-1.66-1.88-2.8-2.45-1.15-.57-2.47-.85-3.98-.85-1.95,0-3.9.69-5.84,2.07-1.95,1.38-3.99,3.41-6.12,6.08v29.63c0,.25-.06.46-.19.64-.13.17-.33.32-.61.45-.28.12-.68.22-1.18.28-.5.06-1.15.09-1.93.09s-1.38-.03-1.88-.09c-.5-.06-.9-.16-1.2-.28-.3-.13-.5-.28-.61-.45-.11-.17-.16-.38-.16-.64v-42.4c0-.25.05-.46.14-.64.09-.17.28-.33.57-.47s.64-.24,1.08-.28c.44-.05,1.02-.07,1.74-.07s1.26.02,1.72.07c.46.05.81.14,1.06.28.25.14.43.3.54.47.11.17.16.38.16.64v5.61c2.39-2.67,4.77-4.62,7.14-5.87,2.37-1.24,4.77-1.86,7.18-1.86,2.83,0,5.21.48,7.14,1.44,1.93.96,3.49,2.24,4.69,3.84,1.19,1.6,2.05,3.48,2.57,5.63.52,2.15.78,4.73.78,7.75v25.87Z"/>
    <path d="M799.94,1474.93c0,.13,0,.26-.02.4-.02.14-.04.29-.07.45-.03.16-.07.33-.12.52s-.1.39-.17.61l-14.46,40.28c-.12.35-.29.63-.49.85-.21.22-.51.39-.92.52s-.93.21-1.55.26c-.63.05-1.41.07-2.36.07s-1.73-.03-2.36-.09c-.63-.06-1.14-.16-1.53-.28-.39-.13-.7-.3-.92-.52s-.39-.49-.52-.8l-14.42-40.28c-.13-.38-.23-.71-.31-.99-.08-.28-.13-.49-.14-.64s-.02-.26-.02-.35c0-.25.06-.47.19-.66.12-.19.34-.34.64-.45.3-.11.69-.18,1.18-.21.49-.03,1.09-.05,1.81-.05.91,0,1.64.02,2.19.07.55.05.97.13,1.27.26.3.13.52.28.66.47.14.19.28.42.4.71l11.97,34.96.19.57.14-.57,11.83-34.96c.06-.28.17-.52.33-.71s.38-.34.68-.47c.3-.12.71-.21,1.23-.26.52-.05,1.2-.07,2.05-.07.72,0,1.32.02,1.79.05.47.03.84.11,1.11.24.27.13.46.28.57.45s.17.38.17.64Z"/>
    <path d="M845.22,1515.4c0,.6-.05,1.1-.14,1.51-.09.41-.22.74-.38.99-.16.25-.34.43-.54.54-.2.11-.42.17-.64.17h-31.85c-.22,0-.42-.05-.61-.17-.19-.11-.37-.29-.54-.54-.17-.25-.31-.58-.4-.99-.09-.41-.14-.91-.14-1.51,0-.57.05-1.05.14-1.46.09-.41.21-.75.35-1.01s.31-.47.52-.61c.2-.14.43-.21.68-.21h12.72v-46.36l-11.78,7.02c-.6.31-1.08.5-1.44.57-.36.06-.65,0-.87-.21s-.37-.54-.45-1.01c-.08-.47-.12-1.07-.12-1.79,0-.53.02-.99.07-1.37s.12-.69.21-.94c.09-.25.23-.47.4-.66.17-.19.4-.38.68-.57l14.04-9c.12-.09.28-.17.47-.24.19-.06.42-.12.71-.19.28-.06.61-.1.99-.12s.85-.02,1.41-.02c.75,0,1.38.03,1.88.09.5.06.9.15,1.18.26.28.11.47.25.57.42.09.17.14.35.14.54v53.57h11.02c.25,0,.49.07.71.21.22.14.4.35.54.61.14.27.25.6.33,1.01s.12.89.12,1.46Z"/>
    <path d="M867.69,1513.47c0,2.23-.37,3.71-1.11,4.45-.74.74-2.08,1.11-4.03,1.11s-3.19-.36-3.91-1.08c-.72-.72-1.08-2.17-1.08-4.33s.37-3.71,1.11-4.45c.74-.74,2.08-1.11,4.03-1.11s3.19.36,3.91,1.08c.72.72,1.08,2.17,1.08,4.33Z"/>
    <path d="M920.36,1487.98c0,4.68-.37,8.95-1.11,12.81-.74,3.86-1.96,7.18-3.67,9.96-1.71,2.78-3.95,4.93-6.71,6.46-2.76,1.52-6.17,2.29-10.22,2.29-3.83,0-7.06-.68-9.68-2.05-2.62-1.37-4.73-3.38-6.34-6.03-1.6-2.65-2.74-5.92-3.42-9.8-.68-3.88-1.01-8.33-1.01-13.36,0-4.65.38-8.91,1.13-12.79.75-3.88,1.98-7.21,3.67-9.99,1.7-2.78,3.93-4.93,6.69-6.45,2.76-1.52,6.16-2.29,10.18-2.29s7.11.68,9.73,2.05c2.62,1.37,4.74,3.38,6.34,6.03s2.74,5.92,3.42,9.8c.68,3.88,1.01,8.33,1.01,13.36ZM912.07,1488.54c0-3.05-.11-5.78-.33-8.2-.22-2.42-.54-4.55-.97-6.41-.42-1.85-.97-3.45-1.65-4.78-.68-1.33-1.48-2.43-2.43-3.3-.94-.86-2.02-1.49-3.23-1.88-1.21-.39-2.57-.59-4.08-.59-2.67,0-4.84.63-6.5,1.88-1.67,1.26-2.98,2.98-3.93,5.18-.96,2.2-1.61,4.77-1.96,7.73s-.52,6.12-.52,9.52c0,4.55.24,8.43.71,11.61.47,3.19,1.22,5.79,2.24,7.8,1.02,2.01,2.32,3.47,3.91,4.38,1.59.91,3.51,1.37,5.77,1.37,1.76,0,3.3-.28,4.64-.85,1.33-.57,2.48-1.37,3.44-2.43.96-1.05,1.75-2.32,2.38-3.79.63-1.48,1.13-3.11,1.51-4.9.38-1.79.64-3.73.78-5.82.14-2.09.21-4.26.21-6.53Z"/>
    <path d="M940.95,1513.47c0,2.23-.37,3.71-1.11,4.45-.74.74-2.08,1.11-4.03,1.11s-3.19-.36-3.91-1.08c-.72-.72-1.08-2.17-1.08-4.33s.37-3.71,1.11-4.45c.74-.74,2.08-1.11,4.03-1.11s3.19.36,3.91,1.08c.72.72,1.08,2.17,1.08,4.33Z"/>
    <path d="M993.62,1487.98c0,4.68-.37,8.95-1.11,12.81-.74,3.86-1.96,7.18-3.67,9.96-1.71,2.78-3.95,4.93-6.71,6.46-2.76,1.52-6.17,2.29-10.22,2.29-3.83,0-7.06-.68-9.68-2.05-2.62-1.37-4.73-3.38-6.34-6.03-1.6-2.65-2.74-5.92-3.42-9.8-.68-3.88-1.01-8.33-1.01-13.36,0-4.65.38-8.91,1.13-12.79.75-3.88,1.98-7.21,3.67-9.99,1.7-2.78,3.93-4.93,6.69-6.45,2.76-1.52,6.16-2.29,10.18-2.29s7.11.68,9.73,2.05c2.62,1.37,4.74,3.38,6.34,6.03s2.74,5.92,3.42,9.8c.68,3.88,1.01,8.33,1.01,13.36ZM985.33,1488.54c0-3.05-.11-5.78-.33-8.2-.22-2.42-.54-4.55-.97-6.41-.42-1.85-.97-3.45-1.65-4.78-.68-1.33-1.48-2.43-2.43-3.3-.94-.86-2.02-1.49-3.23-1.88-1.21-.39-2.57-.59-4.08-.59-2.67,0-4.84.63-6.5,1.88-1.67,1.26-2.98,2.98-3.93,5.18-.96,2.2-1.61,4.77-1.96,7.73s-.52,6.12-.52,9.52c0,4.55.24,8.43.71,11.61.47,3.19,1.22,5.79,2.24,7.8,1.02,2.01,2.32,3.47,3.91,4.38,1.59.91,3.51,1.37,5.77,1.37,1.76,0,3.3-.28,4.64-.85,1.33-.57,2.48-1.37,3.44-2.43.96-1.05,1.75-2.32,2.38-3.79.63-1.48,1.13-3.11,1.51-4.9.38-1.79.64-3.73.78-5.82.14-2.09.21-4.26.21-6.53Z"/>
  </g>
  <g id="Layer_2" data-name="Layer 2">
    <g id="Layer_1-2" data-name="Layer 1-2">
      <circle class="cls-1" cx="720" cy="651.49" r="450.16"/>
      <g>
        <circle class="cls-1" cx="720" cy="651.49" r="450.16"/>
        <path d="M720,1104.82c-249.97,0-453.33-203.36-453.33-453.33s203.36-453.33,453.33-453.33,453.33,203.36,453.33,453.33-203.37,453.33-453.33,453.33ZM720,204.5c-246.47,0-447,200.52-447,446.99s200.52,446.99,447,446.99,447-200.52,447-446.99-200.52-446.99-447-446.99Z"/>
      </g>
      <circle cx="720" cy="651.56" r="417.72"/>
      <path class="cls-1" d="M719.94,546.13h99.66c17.99-91.05-30.98-122.09-78.18-133.05h1.65c-.68-11.59-6.94-22.12-16.79-28.26,2.62-2.36,4.02-5.79,3.8-9.31.4-3.85-1.48-7.59-4.82-9.57v-14.13c1.33-1.26,2.05-3.04,1.96-4.88.12-1.78-.61-3.52-1.96-4.69v-14.83h-.63c1.71-1.25,2.69-3.27,2.6-5.39-1.23-6.73-3.7-13.18-7.29-19.01-3.58,5.83-6.05,12.28-7.29,19.01-.1,2.1.85,4.12,2.53,5.39h-.63v14.89c-1.35,1.17-2.07,2.91-1.96,4.69-.08,1.83.63,3.61,1.96,4.88v14.45c-3.08,2.02-4.78,5.58-4.44,9.25-.23,3.52,1.17,6.96,3.8,9.31-10.08,6.16-16.45,16.91-17.04,28.7h1.65c-48.98,11.15-96.18,59.81-78.18,133.05l99.6-.51Z"/>
      <polygon class="cls-1" points="604.69 703.13 603.61 703.13 595.56 707.76 595.56 724.67 603.61 729.3 604.69 729.3 614.13 729.3 720 729.3 825.81 729.3 835.25 729.3 836.26 729.3 844.37 724.67 844.37 707.76 836.26 703.13 835.25 703.13 825.56 703.13 720 703.13 614.32 703.13 604.69 703.13"/>
      <polygon class="cls-1" points="855.4 844.8 837.15 844.8 826.82 844.8 808 844.8 761.63 844.8 743.19 844.8 720 844.8 696.75 844.8 678.31 844.8 631.87 844.8 613.11 844.8 602.79 844.8 584.48 844.8 584.48 832.64 573.01 832.64 573.01 929.83 584.48 929.83 602.79 929.83 612.35 929.83 720 929.83 827.58 929.83 837.15 929.83 855.4 929.83 866.93 929.83 866.93 832.64 855.4 832.64 855.4 844.8"/>
      <path class="cls-1" d="M826.7,833.46l-.89-97.13h-211.74l-.82,97.13h19.01v-44.67c0-13.69,23.19-38.4,23.19-38.4,0,0,23,24.65,23,38.4v44.67h18.44v-44.67c0-13.69,23.25-38.4,23.25-38.4,0,0,23.19,24.65,23.19,38.4v44.67h18.44v-44.67c0-13.69,23.19-38.4,23.19-38.4,0,0,23.19,24.65,23.19,38.4v44.67h18.56Z"/>
      <polygon class="cls-1" points="720 941.17 612.23 941.17 610.77 1074.92 829.17 1074.92 827.65 941.17 720 941.17"/>
      <polygon class="cls-1" points="824.03 557.47 720 557.47 615.9 557.47 573.01 578.63 573.01 594.85 604.69 594.85 615.33 594.85 720 594.85 824.6 594.85 835.25 594.85 866.93 594.85 866.93 578.63 824.03 557.47"/>
      <path class="cls-1" d="M824.73,606.83h-209.65l-.63,89.27h211.05l-.76-89.27ZM720,685.64c-18.86,0-34.15-15.29-34.15-34.15s15.29-34.15,34.15-34.15,34.15,15.29,34.15,34.15h0c0,18.86-15.29,34.15-34.15,34.15Z"/>
      <polygon class="cls-1" points="716.64 652.89 719.94 623.43 723.29 650.16 734.26 665.88 716.64 652.89 716.64 652.89 716.64 652.89"/>
    </g>
  </g>
</svg>